<svg width="112" height="34" viewBox="0 0 112 34" fill="none" xmlns="http://www.w3.org/2000/svg">
<path d="M8.33846 25.2215C6.7963 25.2215 5.40179 24.9574 4.15492 24.4293C2.92919 23.9011 1.95675 23.1406 1.23762 22.1477C0.518484 21.1548 0.147765 19.9823 0.12546 18.6303H4.87869C4.94286 19.5387 5.26037 20.257 5.83122 20.7851C6.42319 21.3133 7.22619 21.5773 8.24022 21.5773C9.27537 21.5773 10.0885 21.3344 10.6796 20.8485C11.2706 20.3415 11.5658 19.6866 11.5651 18.8838C11.5646 18.2289 11.3634 17.6902 10.9616 17.2677C10.5599 16.8452 10.0526 16.5178 9.43975 16.2854C8.84802 16.0319 8.02388 15.7572 6.96735 15.4615C5.53045 15.039 4.35763 14.627 3.44888 14.2257C2.56124 13.8031 1.78962 13.1799 1.13401 12.356C0.499505 11.511 0.181646 10.3914 0.180429 8.99709C0.179286 7.68731 0.505736 6.54653 1.15978 5.57476C1.81382 4.60299 2.73213 3.8636 3.91472 3.35659C5.09728 2.82845 6.44908 2.56438 7.97012 2.56438C10.2517 2.56438 12.1006 3.12421 13.517 4.24386C14.9545 5.34238 15.7481 6.88454 15.8977 8.87034H11.0177C10.9748 8.10982 10.6468 7.48662 10.0337 7.00073C9.44177 6.49372 8.64934 6.24022 7.65644 6.24022C6.7903 6.24022 6.09335 6.46203 5.5656 6.90567C5.05898 7.3493 4.80603 7.99363 4.80677 8.83865C4.80729 9.43016 4.99785 9.92661 5.37846 10.328C5.78018 10.7083 6.26634 11.0251 6.83695 11.2786C7.42866 11.511 8.2528 11.7857 9.30935 12.1025C10.7462 12.525 11.9191 12.9476 12.8278 13.3701C13.7366 13.7926 14.5188 14.4263 15.1744 15.2714C15.8301 16.1164 16.1585 17.2255 16.1597 18.5986C16.1607 19.7817 15.8553 20.8802 15.2436 21.8942C14.6318 22.9082 13.7347 23.7216 12.5522 24.3342C11.3697 24.9257 9.96512 25.2215 8.33846 25.2215ZM36.569 7.44437L36.5844 24.9997H32.1163L32.1144 22.7815C31.5447 23.542 30.7952 24.1441 29.8661 24.5877C28.9581 25.0102 27.9654 25.2215 26.888 25.2215C25.5148 25.2215 24.2998 24.9363 23.2431 24.3659C22.1863 23.7744 21.3511 22.9188 20.7375 21.7991C20.1449 20.6584 19.848 19.3063 19.8466 17.743L19.8377 7.44437H24.274L24.2824 17.1093C24.2837 18.5036 24.6332 19.581 25.331 20.3415C26.0288 21.0809 26.9797 21.4506 28.1839 21.4506C29.4092 21.4506 30.37 21.0809 31.0665 20.3415C31.763 19.581 32.1107 18.5036 32.1094 17.1093L32.101 7.44437H36.569ZM48.9982 11.0885H45.9245L45.9366 24.9997H41.4369L41.4247 11.0885H39.4284L39.4252 7.44437H41.4215L41.4208 6.5571C41.4189 4.4023 42.0301 2.81789 43.2545 1.80386C44.4789 0.789838 46.327 0.314515 48.7987 0.377892L48.802 4.1171C47.7246 4.09598 46.9748 4.27554 46.5526 4.6558C46.1304 5.03606 45.9198 5.72264 45.9206 6.71554L45.9213 7.44437H48.995L48.9982 11.0885Z" fill="#EEEEEE"/>
<path d="M56.3086 9.97943C56.8782 9.17666 57.6593 8.51121 58.6517 7.98307C59.6653 7.43381 60.8164 7.15917 62.105 7.15917C63.6049 7.15917 64.9573 7.52887 66.1621 8.26826C67.388 9.00765 68.3502 10.0639 69.0485 11.4371C69.7679 12.7891 70.1284 14.363 70.13 16.1586C70.1316 17.9543 69.7738 19.5493 69.0568 20.9436C68.3608 22.3167 67.4006 23.3836 66.176 24.1441C64.9725 24.9046 63.6208 25.2848 62.1209 25.2848C60.8322 25.2848 59.6912 25.0208 58.6978 24.4926C57.7256 23.9645 56.9328 23.299 56.3195 22.4963L56.329 33.3653H51.8926L51.87 7.44437H56.3063L56.3086 9.97943ZM65.5986 16.1586C65.5977 15.1024 65.3751 14.194 64.9308 13.4334C64.5076 12.6518 63.9367 12.0603 63.2181 11.6589C62.5206 11.2575 61.7599 11.0568 60.936 11.0568C60.1332 11.0568 59.3729 11.2681 58.655 11.6906C57.9582 12.092 57.3883 12.6835 56.9454 13.4651C56.5235 14.2468 56.3131 15.1657 56.314 16.222C56.3149 17.2783 56.527 18.1972 56.9502 18.9789C57.3945 19.7605 57.9654 20.3626 58.6629 20.7851C59.3815 21.1865 60.1422 21.3872 60.945 21.3872C61.7689 21.3872 62.5292 21.1759 63.226 20.7534C63.9439 20.3309 64.5138 19.7288 64.9356 18.9472C65.3785 18.1656 65.5995 17.236 65.5986 16.1586ZM72.213 16.1586C72.2115 14.3841 72.5587 12.8102 73.2546 11.4371C73.9717 10.0639 74.932 9.00765 76.1355 8.26826C77.3601 7.52887 78.7224 7.15917 80.2223 7.15917C81.5321 7.15917 82.6731 7.42324 83.6453 7.95138C84.6387 8.47952 85.4314 9.14497 86.0237 9.94774L86.0215 7.44437H90.4895L90.5048 24.9997H86.0368L86.0346 22.4329C85.4649 23.2568 84.6733 23.9434 83.6597 24.4926C82.6673 25.0208 81.5162 25.2848 80.2064 25.2848C78.7276 25.2848 77.3753 24.9046 76.1493 24.1441C74.9445 23.3836 73.9824 22.3167 73.2629 20.9436C72.5645 19.5493 72.2146 17.9543 72.213 16.1586ZM86.0291 16.222C86.0282 15.1446 85.8161 14.2257 85.393 13.4651C84.9698 12.6835 84.3989 12.092 83.6803 11.6906C82.9616 11.2681 82.1904 11.0568 81.3665 11.0568C80.5426 11.0568 79.7822 11.2575 79.0854 11.6589C78.3886 12.0603 77.8188 12.6518 77.3758 13.4334C76.954 14.194 76.7435 15.1024 76.7444 16.1586C76.7454 17.2149 76.9574 18.1444 77.3806 18.9472C77.8249 19.7288 78.3959 20.3309 79.0934 20.7534C79.812 21.1759 80.5727 21.3872 81.3755 21.3872C82.1994 21.3872 82.9703 21.1865 83.6882 20.7851C84.4061 20.3626 84.976 19.7711 85.3978 19.0106C85.8196 18.2289 86.0301 17.2994 86.0291 16.222ZM111.617 7.44437L100.771 33.302H96.0491L99.8441 24.556L92.7943 7.44437H97.7694L102.312 19.7077L106.896 7.44437H111.617Z" fill="#AAC645"/>
</svg>
