<svg width="113" height="34" viewBox="0 0 113 34" fill="none" xmlns="http://www.w3.org/2000/svg">
<path d="M8.42 25.224C6.86267 25.224 5.45467 24.9573 4.196 24.424C2.95867 23.8907 1.97733 23.1227 1.252 22.12C0.526667 21.1173 0.153333 19.9333 0.132 18.568H4.932C4.996 19.4853 5.316 20.2107 5.892 20.744C6.48933 21.2773 7.3 21.544 8.324 21.544C9.36933 21.544 10.1907 21.2987 10.788 20.808C11.3853 20.296 11.684 19.6347 11.684 18.824C11.684 18.1627 11.4813 17.6187 11.076 17.192C10.6707 16.7653 10.1587 16.4347 9.54 16.2C8.94267 15.944 8.11067 15.6667 7.044 15.368C5.59333 14.9413 4.40933 14.5253 3.492 14.12C2.596 13.6933 1.81733 13.064 1.156 12.232C0.516 11.3787 0.196 10.248 0.196 8.84C0.196 7.51733 0.526667 6.36533 1.188 5.384C1.84933 4.40267 2.77733 3.656 3.972 3.144C5.16667 2.61067 6.532 2.344 8.068 2.344C10.372 2.344 12.2387 2.90933 13.668 4.04C15.1187 5.14933 15.9187 6.70667 16.068 8.712H11.14C11.0973 7.944 10.7667 7.31467 10.148 6.824C9.55067 6.312 8.75067 6.056 7.748 6.056C6.87333 6.056 6.16933 6.28 5.636 6.728C5.124 7.176 4.868 7.82667 4.868 8.68C4.868 9.27733 5.06 9.77867 5.444 10.184C5.84933 10.568 6.34 10.888 6.916 11.144C7.51333 11.3787 8.34533 11.656 9.412 11.976C10.8627 12.4027 12.0467 12.8293 12.964 13.256C13.8813 13.6827 14.6707 14.3227 15.332 15.176C15.9933 16.0293 16.324 17.1493 16.324 18.536C16.324 19.7307 16.0147 20.84 15.396 21.864C14.7773 22.888 13.8707 23.7093 12.676 24.328C11.4813 24.9253 10.0627 25.224 8.42 25.224ZM36.944 7.272V25H32.432V22.76C31.856 23.528 31.0987 24.136 30.16 24.584C29.2427 25.0107 28.24 25.224 27.152 25.224C25.7653 25.224 24.5387 24.936 23.472 24.36C22.4053 23.7627 21.5627 22.8987 20.944 21.768C20.3467 20.616 20.048 19.2507 20.048 17.672V7.272H24.528V17.032C24.528 18.44 24.88 19.528 25.584 20.296C26.288 21.0427 27.248 21.416 28.464 21.416C29.7013 21.416 30.672 21.0427 31.376 20.296C32.08 19.528 32.432 18.44 32.432 17.032V7.272H36.944ZM49.4923 10.952H46.3883V25H41.8443V10.952H39.8283V7.272H41.8443V6.376C41.8443 4.2 42.4629 2.6 43.7003 1.576C44.9376 0.551999 46.8043 0.0719992 49.3003 0.136V3.912C48.2123 3.89067 47.4549 4.072 47.0283 4.456C46.6016 4.84 46.3883 5.53333 46.3883 6.536V7.272H49.4923V10.952Z" fill="#333333"/>
<path d="M56.8755 9.832C57.4515 9.02133 58.2408 8.34933 59.2435 7.816C60.2675 7.26133 61.4302 6.984 62.7315 6.984C64.2462 6.984 65.6115 7.35733 66.8275 8.104C68.0648 8.85067 69.0355 9.91733 69.7395 11.304C70.4648 12.6693 70.8275 14.2587 70.8275 16.072C70.8275 17.8853 70.4648 19.496 69.7395 20.904C69.0355 22.2907 68.0648 23.368 66.8275 24.136C65.6115 24.904 64.2462 25.288 62.7315 25.288C61.4302 25.288 60.2782 25.0213 59.2755 24.488C58.2942 23.9547 57.4942 23.2827 56.8755 22.472V33.448H52.3955V7.272H56.8755V9.832ZM66.2515 16.072C66.2515 15.0053 66.0275 14.088 65.5795 13.32C65.1528 12.5307 64.5768 11.9333 63.8515 11.528C63.1475 11.1227 62.3795 10.92 61.5475 10.92C60.7368 10.92 59.9688 11.1333 59.2435 11.56C58.5395 11.9653 57.9635 12.5627 57.5155 13.352C57.0888 14.1413 56.8755 15.0693 56.8755 16.136C56.8755 17.2027 57.0888 18.1307 57.5155 18.92C57.9635 19.7093 58.5395 20.3173 59.2435 20.744C59.9688 21.1493 60.7368 21.352 61.5475 21.352C62.3795 21.352 63.1475 21.1387 63.8515 20.712C64.5768 20.2853 65.1528 19.6773 65.5795 18.888C66.0275 18.0987 66.2515 17.16 66.2515 16.072ZM72.931 16.072C72.931 14.28 73.283 12.6907 73.987 11.304C74.7123 9.91733 75.683 8.85067 76.899 8.104C78.1363 7.35733 79.5123 6.984 81.027 6.984C82.3497 6.984 83.5017 7.25067 84.483 7.784C85.4857 8.31733 86.2857 8.98933 86.883 9.8V7.272H91.395V25H86.883V22.408C86.307 23.24 85.507 23.9333 84.483 24.488C83.4803 25.0213 82.3177 25.288 80.995 25.288C79.5017 25.288 78.1363 24.904 76.899 24.136C75.683 23.368 74.7123 22.2907 73.987 20.904C73.283 19.496 72.931 17.8853 72.931 16.072ZM86.883 16.136C86.883 15.048 86.6697 14.12 86.243 13.352C85.8163 12.5627 85.2403 11.9653 84.515 11.56C83.7897 11.1333 83.011 10.92 82.179 10.92C81.347 10.92 80.579 11.1227 79.875 11.528C79.171 11.9333 78.595 12.5307 78.147 13.32C77.7203 14.088 77.507 15.0053 77.507 16.072C77.507 17.1387 77.7203 18.0773 78.147 18.888C78.595 19.6773 79.171 20.2853 79.875 20.712C80.6003 21.1387 81.3683 21.352 82.179 21.352C83.011 21.352 83.7897 21.1493 84.515 20.744C85.2403 20.3173 85.8163 19.72 86.243 18.952C86.6697 18.1627 86.883 17.224 86.883 16.136ZM112.731 7.272L101.755 33.384H96.9865L100.827 24.552L93.7225 7.272H98.7465L103.323 19.656L107.963 7.272H112.731Z" fill="#AAC645"/>
</svg>
