<svg width="24" height="24" viewBox="0 0 24 24" fill="none" xmlns="http://www.w3.org/2000/svg">
<g clip-path="url(#clip0_470_19708)">
<path d="M13.2987 0.0200142C13.2192 0.0378284 13.138 0.0475723 13.0565 0.0490957C12.4197 0.130433 11.7949 0.286631 11.1952 0.5144L10.9628 0.609399C10.6276 0.744439 10.3014 0.900501 9.98622 1.07664C9.93224 1.11094 9.87374 1.13769 9.8124 1.15613C9.76357 1.16776 9.7245 1.19103 9.7245 1.2046C9.7245 1.21817 9.69716 1.23756 9.66786 1.25113C9.6115 1.27368 9.55779 1.30228 9.50771 1.33644C9.45135 1.37316 9.39263 1.40619 9.33193 1.43531C9.26569 1.46594 9.2034 1.50435 9.14638 1.5497C9.10746 1.58322 9.06409 1.61127 9.01747 1.63307C8.51069 1.94291 8.0282 2.29029 7.57411 2.67225C7.3204 2.89839 7.08649 3.1455 6.8749 3.41092C6.85737 3.44765 6.83358 3.4811 6.80458 3.50979C6.62287 3.74927 6.45965 4.00203 6.3163 4.26591C6.28115 4.34734 6.20693 4.49275 6.16005 4.59163C5.99567 4.93602 5.92304 5.31651 5.94911 5.69672C5.94431 5.867 5.97675 6.03628 6.04418 6.19292C6.11162 6.34956 6.21245 6.48983 6.33974 6.60407C6.48419 6.74867 6.65655 6.86287 6.8465 6.93982C7.03644 7.01677 7.24007 7.0549 7.44521 7.05192C7.7589 7.07186 8.07367 7.03642 8.3749 6.94723C8.48232 6.91621 8.6288 6.88131 8.69911 6.85998C8.76194 6.8466 8.82293 6.82577 8.88075 6.79794C8.95693 6.75917 9.38466 6.56723 9.40419 6.56723C9.89101 6.31404 10.3607 6.02973 10.8104 5.71611C11.2362 5.43305 11.6112 5.18683 11.6444 5.16938C11.6776 5.15193 11.8768 5.03173 12.0917 4.90377C12.3065 4.77581 12.5722 4.62652 12.6776 4.57224L13.0253 4.39C13.1093 4.35122 13.2636 4.27949 13.3729 4.23877C13.4823 4.19806 13.619 4.13989 13.6718 4.11663C13.7245 4.09336 13.8085 4.05847 13.8534 4.03908C14.0827 3.96727 14.3203 3.92492 14.5604 3.91306C14.8326 3.87725 15.1087 3.93741 15.3407 4.08303C15.5727 4.22866 15.7459 4.45051 15.83 4.70989C15.8931 4.91765 15.9143 5.13571 15.8925 5.35162C15.9145 5.70826 15.8586 6.06542 15.7284 6.39856L15.6444 6.59243C15.4034 7.11645 15.1019 7.61092 14.746 8.0659C14.2383 8.69992 13.6706 9.28421 13.0507 9.81079L12.6034 10.1792C12.4628 10.2935 12.3007 10.4079 12.1229 10.5281C12.0487 10.5727 11.9276 10.6522 11.8573 10.7046C11.5169 10.9148 11.1626 11.102 10.7968 11.2649L10.5253 11.3831C10.4711 11.4118 10.4123 11.4309 10.3515 11.4394C10.2942 11.4449 10.2378 11.4573 10.1835 11.4762C10.1357 11.4951 10.084 11.5022 10.0329 11.4968C9.98172 11.4914 9.93267 11.4737 9.88996 11.4452C9.84725 11.4168 9.81218 11.3784 9.78777 11.3335C9.76336 11.2885 9.75036 11.2384 9.74989 11.1873C9.74989 10.9178 9.8788 10.7453 10.6933 9.94262C11.5741 9.076 11.6698 8.9461 11.6698 8.61845C11.6698 8.29079 11.5077 8.04845 11.1425 7.86427C10.9899 7.7835 10.8159 7.75167 10.6444 7.77314C10.3808 7.75874 10.1193 7.82653 9.89638 7.96702C9.84364 7.99998 9.75966 8.04263 9.71474 8.0659C9.67952 8.08244 9.64614 8.10258 9.61513 8.126C9.61513 8.126 9.53896 8.18416 9.46474 8.24039C9.22197 8.44016 9.00132 8.66504 8.80654 8.9112C8.6511 9.12602 8.51453 9.3537 8.39833 9.59171C8.20409 9.98787 8.08996 10.418 8.0624 10.8577C8.0624 11.5654 8.43349 12.1315 9.00771 12.2924C9.37861 12.3392 9.75399 12.3392 10.1249 12.2924C10.4314 12.2243 10.7324 12.1336 11.0253 12.021C11.0484 12.0034 11.0763 11.9933 11.1054 11.9919C11.5927 11.7908 12.0636 11.5522 12.5136 11.2784C12.5897 11.228 12.6757 11.1718 12.7089 11.1524C12.7421 11.133 12.9042 11.0419 13.0565 10.943C13.2089 10.8442 13.3554 10.7492 13.3651 10.7492C13.4445 10.6847 13.5273 10.6245 13.6132 10.5688L13.9452 10.342C14.0018 10.3013 14.1561 10.183 14.2929 10.0745C15.0524 9.49082 15.7459 8.82711 16.3612 8.09498C16.4335 8.00773 16.4999 7.92437 16.5097 7.91467C16.6557 7.72789 16.792 7.53375 16.9179 7.33304C17.003 7.20341 17.0812 7.06946 17.1522 6.93172C17.2147 6.81345 17.3026 6.65254 17.3476 6.56917C17.3925 6.4858 17.4823 6.27448 17.5546 6.09223C17.6268 5.90999 17.6952 5.73356 17.7069 5.70448C17.8435 5.29192 17.9435 4.8683 18.0058 4.43846C18.0708 3.86022 18.0305 3.27507 17.8866 2.71102C17.8353 2.5468 17.77 2.38724 17.6913 2.23409C17.4302 1.66986 17.0265 1.18229 16.5194 0.818786C16.4511 0.775442 16.3858 0.727507 16.3241 0.675318C15.9887 0.469296 15.6275 0.307657 15.2499 0.194503C15.0445 0.135829 14.8358 0.089218 14.6249 0.054912C14.412 0.021953 14.0272 0.000626557 13.7245 0.000626557H13.5702C13.4793 -0.00215707 13.3883 0.0043396 13.2987 0.0200142ZM7.11904 17.9808C7.0096 18.0075 6.89875 18.0282 6.787 18.0428C6.662 18.0583 6.42958 18.0913 6.27333 18.1145C6.16884 18.1252 6.06554 18.1453 5.96474 18.1746C5.93544 18.1998 5.93154 23.7971 5.96474 23.8378C6.19514 23.8684 6.42781 23.8787 6.66005 23.8688C7.33583 23.8688 7.33974 23.8688 7.35732 23.7932C7.35732 23.7525 7.36904 22.4244 7.35732 20.8424C7.35732 17.9904 7.35732 17.9633 7.28114 17.9575C7.22489 17.956 7.16877 17.9639 7.11513 17.9808H7.11904ZM6.30654 15.6058C6.12744 15.6746 5.97448 15.7973 5.86904 15.9567C5.76357 16.1176 5.75966 16.1312 5.75966 16.4666V16.8156L5.88661 16.9862C5.99364 17.1556 6.15985 17.2798 6.35341 17.3351C6.49407 17.3833 6.64433 17.3972 6.79152 17.3756C6.93871 17.354 7.0785 17.2975 7.19911 17.2111C7.55263 16.9862 7.67568 16.4142 7.46083 15.9935C7.38714 15.846 7.26719 15.7263 7.11904 15.6523C6.86473 15.532 6.57309 15.5153 6.30654 15.6058ZM18.4354 18.9676C18.5741 19.0025 18.8651 19.2371 18.8651 19.3088C18.8748 19.354 18.892 19.3972 18.9159 19.4368C18.9921 19.5861 19.0507 20.0727 18.9979 20.1347C18.9452 20.1968 18.8358 20.1832 18.1659 20.1832H17.3827L17.3632 20.1018C17.3448 19.8238 17.4129 19.547 17.5585 19.3088C17.6671 19.1409 17.8327 19.0171 18.0253 18.9598C18.1005 18.9353 18.1787 18.9209 18.2577 18.9172C18.2772 18.9172 18.3573 18.9482 18.4335 18.9676H18.4354ZM17.7226 17.9207C17.6436 17.9293 17.5665 17.9502 17.494 17.9827C17.4716 18.0017 17.4434 18.0126 17.414 18.0137C17.3226 18.0375 17.2347 18.0727 17.1522 18.1184C16.8284 18.3051 16.5507 18.5615 16.3397 18.8687C16.1982 19.0922 16.0841 19.3318 15.9999 19.5822C15.9873 19.6377 15.9703 19.6921 15.9491 19.745C15.9374 19.7819 15.8964 19.9234 15.8632 20.0591C15.7754 20.6641 15.7754 21.2785 15.8632 21.8835C15.9276 22.1532 16.026 22.4138 16.1561 22.659C16.1605 22.6595 16.1648 22.6608 16.1686 22.6629C16.1724 22.6651 16.1758 22.6679 16.1786 22.6713C16.1813 22.6748 16.1833 22.6787 16.1845 22.6829C16.1857 22.6871 16.186 22.6915 16.1854 22.6958C16.1854 22.8199 16.5761 23.3162 16.8573 23.5411C17.0422 23.6698 17.244 23.7729 17.4569 23.8475C17.7601 23.9367 18.0728 23.99 18.3886 24.0064C18.8593 24.0064 19.7069 23.8126 19.9882 23.6187C20.0497 23.5797 20.1151 23.5472 20.1835 23.5217C20.3109 23.4743 20.4277 23.4025 20.5272 23.3104C20.4402 23.0272 20.3084 22.7596 20.1366 22.5175C20.089 22.5289 20.0448 22.5515 20.0077 22.5834C19.9709 22.6156 19.9266 22.6382 19.8788 22.6493C19.839 22.6554 19.8013 22.6714 19.7694 22.6958C19.6425 22.7542 19.512 22.8048 19.3788 22.8471C19.1303 22.9426 18.8631 22.9804 18.5976 22.9576C18.1874 22.9576 18.1171 22.9576 17.9843 22.8897C17.5214 22.6687 17.2558 22.1142 17.2558 21.3639C17.2492 21.2638 17.2492 21.1635 17.2558 21.0634C17.2558 21.0634 17.994 21.0479 18.8866 21.0382L20.5097 21.0207V20.6912C20.4901 20.0475 20.3144 19.1789 20.1679 18.9812C20.1542 18.9618 20.1093 18.8803 20.0663 18.7873C19.8461 18.4032 19.4874 18.1163 19.0624 17.9846C18.6167 17.8666 18.1513 17.8409 17.6952 17.909L17.7226 17.9207ZM10.5155 17.9207C9.87112 18.0667 9.27814 18.3821 8.79872 18.8338L8.66005 18.9598V23.8184C8.66005 23.8707 8.70888 23.8746 9.38271 23.8668H10.1015L10.1112 21.5752V19.2855L10.2382 19.1867C10.3585 19.0842 10.4998 19.0088 10.6522 18.9656C10.9336 18.8777 11.2294 18.8448 11.5233 18.8687C11.6151 18.8826 11.7082 18.8858 11.8007 18.8784C11.8616 18.8043 11.908 18.7194 11.9374 18.6283C11.9862 18.4965 12.0663 18.3259 12.1054 18.2405C12.2147 18.0331 12.205 17.9808 12.0585 17.9478L11.7733 17.8819C11.3584 17.8275 10.9375 17.8366 10.5253 17.909L10.5155 17.9207ZM3.2245 21.0072C3.25664 21.3027 3.26773 21.6 3.25771 21.8971C3.25771 22.8315 3.27138 22.7734 3.02529 22.9013C2.86054 22.9612 2.68406 22.9825 2.50966 22.9634H2.10732L1.94325 22.8509C1.85461 22.7929 1.77611 22.7208 1.71083 22.6377C1.58995 22.439 1.52852 22.2102 1.5337 21.9781C1.53889 21.7461 1.61049 21.5203 1.74013 21.3271C1.86026 21.2027 2.00353 21.1026 2.162 21.0324C2.194 21.0323 2.22501 21.0213 2.2499 21.0014C2.29677 20.9529 2.44521 20.9393 2.83583 20.9451C3.11318 20.9451 3.19911 20.9587 3.22646 20.9994L3.2245 21.0072ZM2.24794 17.8373C1.89812 17.8844 1.55395 17.9662 1.2206 18.0816C1.18349 18.0971 1.11708 18.1203 1.07021 18.1339C0.847913 18.2107 0.63653 18.3156 0.441302 18.4461C0.457377 18.5045 0.478281 18.5616 0.503802 18.6167C0.591928 18.8408 0.698404 19.0574 0.822161 19.2642C0.848927 19.2585 0.87463 19.2487 0.898333 19.2351C1.07152 19.1492 1.25108 19.0766 1.43544 19.018C1.53505 18.9889 1.65419 18.9501 1.70107 18.9327C1.99783 18.8595 2.30521 18.8385 2.60927 18.8706C3.05849 18.9424 3.2245 19.1498 3.25185 19.6791C3.26552 19.9719 3.26552 19.9796 3.18935 19.999C2.96408 20.0197 2.73779 20.0275 2.51161 20.0223C1.73036 20.0223 1.48232 20.0669 0.972552 20.315C0.748996 20.4276 0.551757 20.5855 0.393619 20.7785C0.235481 20.9716 0.119973 21.1954 0.0545828 21.4356C-0.024295 21.7837 -0.0175957 22.1454 0.074114 22.4903C0.370989 23.386 1.08193 23.9076 2.06825 23.9599C2.93344 24.0201 3.79215 23.7742 4.49208 23.2658L4.70693 23.0913L4.71669 21.3465C4.72646 19.3301 4.71669 19.2603 4.47841 18.7679C4.30814 18.4837 4.06481 18.2495 3.77333 18.0893C3.66786 18.0409 3.55068 17.9904 3.51357 17.9749C3.1045 17.8489 2.67481 17.8021 2.24794 17.8373ZM13.7304 16.3522C12.994 16.4608 12.7538 16.5073 12.7186 16.5461C12.6835 16.5848 12.6952 17.6182 12.6952 19.6248C12.7108 22.4283 12.7167 22.6803 12.7714 22.816C12.8396 23.0425 12.9638 23.2485 13.1327 23.4151C13.4804 23.7602 13.914 23.9017 14.6522 23.9017C15.0565 23.9017 15.1132 23.9017 15.1405 23.8416C15.1796 23.585 15.1874 23.3246 15.164 23.0661C15.1425 22.9828 15.1308 22.9808 14.8808 22.9595C14.7554 22.9649 14.6309 22.9359 14.521 22.8757C14.4111 22.8155 14.32 22.7265 14.2577 22.6183L14.1757 22.4709L14.164 20.7668C14.164 19.4969 14.164 19.049 14.1952 19.0219C14.2265 18.9947 14.3378 18.9773 14.6913 18.9773C15.2382 18.9773 15.1913 19.0296 15.1796 18.3956V17.9672L14.7147 17.9517C14.5459 17.9499 14.3775 17.9356 14.2108 17.909C14.1776 17.8896 14.1679 17.688 14.1679 17.0928V16.3018H14.0956C14.0526 16.3018 13.9003 16.325 13.7382 16.3483L13.7304 16.3522ZM22.9101 16.2863C22.9101 16.2863 22.7479 16.3231 22.5663 16.3522C22.3847 16.3813 22.0858 16.4278 21.9042 16.4608L21.5722 16.517V19.5434C21.5722 22.8393 21.5722 22.69 21.7675 23.101C21.8396 23.2495 21.9421 23.3816 22.0683 23.4888C22.4198 23.8087 22.7479 23.9076 23.4472 23.9095C24.0429 23.9095 24.0194 23.9328 24.0077 23.388V23.0002L23.7518 22.977C23.2987 22.9382 23.08 22.7559 23.0292 22.3818C23.0155 22.2693 23.0058 20.8618 23.0097 19.2565C23.0097 16.4782 23.0097 16.2107 22.9257 16.2901L22.9101 16.2863Z" fill="#ED1D24"/>
</g>
<defs>
<clipPath id="clip0_470_19708">
<rect width="24" height="24" fill="white"/>
</clipPath>
</defs>
</svg>
