<svg width="20" height="20" viewBox="0 0 20 20" fill="none" xmlns="http://www.w3.org/2000/svg">
<g clip-path="url(#clip0_2_21147)">
<path d="M19.9683 10.1551C20.0327 9.99931 19.9969 9.82001 19.8775 9.70095L12.3775 2.20095C12.212 2.04107 11.9482 2.04568 11.7883 2.21119C11.6324 2.37267 11.6324 2.62865 11.7883 2.79009L18.5775 9.57927H0.41668C0.186563 9.57931 0 9.76587 0 9.99599C0 10.2261 0.186563 10.4127 0.41668 10.4127H18.5775L11.7892 17.201C11.6237 17.3609 11.6191 17.6246 11.7789 17.7902C11.9388 17.9557 12.2026 17.9602 12.3681 17.8004C12.3716 17.797 12.375 17.7936 12.3784 17.7902L19.8784 10.2902C19.9169 10.2515 19.9475 10.2056 19.9683 10.1551Z" fill="#2196F3"/>
<path d="M12.0834 17.9118C11.8533 17.9122 11.6664 17.7259 11.666 17.4958C11.6658 17.3849 11.7099 17.2784 11.7884 17.2001L18.9943 9.99512L11.7884 2.79012C11.6286 2.62461 11.6332 2.36082 11.7987 2.20094C11.9602 2.045 12.2161 2.045 12.3776 2.20094L19.8776 9.70094C20.0402 9.86363 20.0402 10.1274 19.8776 10.2901L12.3776 17.7901C12.2995 17.868 12.1938 17.9118 12.0834 17.9118Z" fill="white"/>
<path d="M19.5833 10.4114H0.41668C0.186563 10.4114 0 10.2249 0 9.9948C0 9.76469 0.186563 9.57812 0.41668 9.57812H19.5834C19.8135 9.57812 20 9.76469 20 9.9948C20 10.2249 19.8134 10.4114 19.5833 10.4114Z" fill="white"/>
</g>
<defs>
<clipPath id="clip0_2_21147">
<rect width="20" height="20" rx="10" fill="white"/>
</clipPath>
</defs>
</svg>
