<svg width="20" height="20" viewBox="0 0 20 20" fill="none" xmlns="http://www.w3.org/2000/svg">
<g clip-path="url(#clip0_403_15090)">
<path d="M10.1546 0.0316768C9.99882 -0.0327363 9.81953 0.00312185 9.70046 0.122497L2.20046 7.6225C2.04058 7.78801 2.04519 8.0518 2.2107 8.21168C2.37218 8.36762 2.62816 8.36762 2.7896 8.21168L9.57879 1.4225L9.57879 19.5833C9.57882 19.8134 9.76539 20 9.9955 20C10.2256 20 10.4122 19.8134 10.4122 19.5833L10.4122 1.4225L17.2005 8.21082C17.3604 8.37633 17.6241 8.38094 17.7897 8.22105C17.9552 8.06117 17.9598 7.79742 17.7999 7.63187C17.7966 7.6284 17.7932 7.625 17.7897 7.62164L10.2897 0.121639C10.251 0.0831237 10.2051 0.0525374 10.1546 0.0316768Z" fill="#2196F3"/>
<path d="M17.9118 7.91656C17.9122 8.14668 17.7259 8.33355 17.4958 8.33398C17.3849 8.33418 17.2784 8.29012 17.2001 8.21156L9.99512 1.0057L2.79012 8.21156C2.62461 8.37144 2.36082 8.36684 2.20094 8.20133C2.045 8.03984 2.045 7.78387 2.20094 7.62242L9.70094 0.122418C9.86363 -0.0402375 10.1274 -0.0402375 10.2901 0.122418L17.7901 7.62242C17.868 7.70047 17.9118 7.80625 17.9118 7.91656Z" fill="white"/>
<path d="M10.4119 0.416677L10.4119 19.5833C10.4119 19.8134 10.2254 20 9.99529 20C9.76518 20 9.57861 19.8134 9.57861 19.5833L9.57861 0.416637C9.57861 0.186521 9.76518 -4.05312e-05 9.99529 -4.05312e-05C10.2254 -2.38419e-06 10.4119 0.186559 10.4119 0.416677Z" fill="white"/>
</g>
<defs>
<clipPath id="clip0_403_15090">
<rect y="20" width="20" height="20" rx="10" transform="rotate(-90 0 20)" fill="white"/>
</clipPath>
</defs>
</svg>
