<svg width="25" height="24" viewBox="0 0 25 24" fill="none" xmlns="http://www.w3.org/2000/svg">
<g clip-path="url(#clip0_470_21189)">
<path fill-rule="evenodd" clip-rule="evenodd" d="M5.3765 14.7149L16.2061 4.03892L16.2232 4.02758C16.2941 3.96063 16.3757 3.90905 16.4618 3.8743C16.6511 3.79785 16.8652 3.79821 17.0548 3.8743C17.1484 3.91239 17.2334 3.96834 17.3049 4.03892L18.7273 5.44109C18.7732 5.48657 18.8012 5.54657 18.8064 5.61047C18.812 5.67229 18.7971 5.73777 18.7611 5.79264C18.678 5.91848 18.6179 6.05603 18.5837 6.19724C18.3518 7.14507 19.2172 7.98754 20.162 7.76403C20.3023 7.7311 20.4399 7.67367 20.565 7.59429C20.6191 7.55464 20.6859 7.53543 20.7531 7.54015C20.8192 7.5449 20.8841 7.57234 20.9339 7.62136L22.3566 9.0239C22.4301 9.09633 22.4862 9.18047 22.5233 9.27009C22.5617 9.36302 22.5816 9.46239 22.5819 9.56275C22.5816 9.66311 22.5617 9.76248 22.5233 9.8554C22.4862 9.94466 22.4301 10.0292 22.3566 10.1016L11.5266 20.7776C11.4552 20.848 11.3703 20.9038 11.2769 20.9418C11.1828 20.9802 11.0819 21 10.98 21C10.8795 21 10.7781 20.9806 10.6831 20.9418C10.5919 20.9053 10.5065 20.8497 10.433 20.7776L9.00023 19.3652C8.95607 19.322 8.92898 19.2631 8.9223 19.2024C8.91562 19.1435 8.9275 19.0802 8.95978 19.0261C9.03845 18.9028 9.09301 18.7685 9.12306 18.6306C9.32308 17.7245 8.5089 16.8941 7.57004 17.0869C7.43088 17.1158 7.29469 17.1673 7.16888 17.2401C7.1133 17.2748 7.04776 17.2906 6.98222 17.2851C6.91685 17.2795 6.85561 17.2512 6.80929 17.2054L5.3765 15.7926C5.30474 15.7222 5.24797 15.6384 5.20951 15.546C5.17094 15.4533 5.15103 15.354 5.15088 15.2538C5.15088 15.155 5.17054 15.0555 5.20951 14.9615C5.24815 14.8692 5.3049 14.7854 5.3765 14.7149ZM15.6395 3.96063L15.2584 4.34145L14.4943 3.5886C14.4379 3.53299 14.3462 3.5169 14.2731 3.54616C14.2501 3.55568 14.2278 3.57031 14.2089 3.5886L12.8611 4.91724C12.8789 4.92858 12.8967 4.94212 12.9142 4.95931L13.3001 5.33976C13.3105 5.35001 13.3179 5.35878 13.3261 5.36939C13.5253 5.64412 13.1468 5.94994 12.9142 5.72021L12.5275 5.33976C12.5175 5.32989 12.5104 5.32037 12.5015 5.30977L12.4859 5.28672L5.90086 11.7789C5.92646 11.7917 5.95058 11.8089 5.97396 11.8319L6.3599 12.2127C6.37029 12.223 6.37808 12.2321 6.38625 12.2424C6.58553 12.5174 6.20701 12.8233 5.97396 12.5935C5.87117 12.4915 5.5947 12.257 5.53496 12.1392L4.17898 13.4763L4.15746 13.4891C4.11515 13.5447 4.10402 13.6244 4.13111 13.6892C4.14002 13.7122 4.15523 13.7338 4.17379 13.7521L4.67328 14.2445L4.52818 14.8536L3.7975 14.1329C3.72863 14.0655 3.67423 13.9851 3.63756 13.8966C3.56334 13.7184 3.56371 13.515 3.63756 13.3369C3.67422 13.2482 3.72862 13.1677 3.7975 13.1002L13.8278 3.21291L13.8441 3.20193C13.912 3.13755 13.99 3.08816 14.0727 3.05487C14.2542 2.98171 14.4594 2.98171 14.6409 3.05487C14.7277 3.08999 14.8097 3.14303 14.8802 3.21254L15.6395 3.96063ZM20.0878 11.4222C20.1104 11.4441 20.1338 11.4613 20.1579 11.4741L12.9249 18.6043L12.913 18.5863C12.9041 18.5754 12.896 18.5655 12.8856 18.5552L12.4829 18.158C12.2395 17.9184 11.845 18.2377 12.0525 18.5242C12.0614 18.5351 12.0692 18.545 12.0796 18.5552L12.4829 18.9522C12.4985 18.9679 12.5149 18.9811 12.5316 18.992L11.1236 20.3799C11.1036 20.3993 11.0806 20.4147 11.0568 20.4242C11.0309 20.4344 11.0027 20.4399 10.9745 20.4399C10.9481 20.4399 10.9192 20.4341 10.8924 20.4231C10.8679 20.4136 10.8442 20.399 10.826 20.3799L9.5424 19.1149C9.60982 18.9669 9.6576 18.8108 9.68453 18.6507C9.89234 17.408 8.80392 16.3128 7.52328 16.5209C7.36222 16.5466 7.20377 16.5941 7.05273 16.6607L5.76912 15.3953C5.74945 15.3756 5.73387 15.3533 5.72459 15.3291C5.7142 15.305 5.709 15.2772 5.709 15.2483C5.709 15.2044 5.72385 15.1579 5.75242 15.1206L5.77431 15.1071L7.18929 13.7122C7.19709 13.7272 7.20599 13.7426 7.21713 13.7576C7.22603 13.7689 7.23383 13.7784 7.24459 13.7887L7.6476 14.1859C7.89066 14.4259 8.28551 14.1066 8.07769 13.8198C8.06916 13.8088 8.06099 13.7993 8.0506 13.7887L7.6476 13.3914C7.62507 13.3692 7.5993 13.3505 7.57115 13.3358L14.8064 6.20346L14.8227 6.22723C14.8316 6.23821 14.8394 6.24808 14.8498 6.25833L15.2528 6.6556C15.4959 6.89521 15.8907 6.57586 15.6829 6.28942C15.674 6.27845 15.6662 6.26894 15.6554 6.25833L15.2528 5.86142C15.235 5.84386 15.2164 5.82959 15.1975 5.81788L16.6043 4.43107C16.6236 4.41205 16.647 4.39669 16.6711 4.38681C16.7476 4.35608 16.8433 4.37328 16.9019 4.43107L18.1737 5.68509C18.0994 5.83327 18.0457 5.99065 18.0141 6.15297C17.7621 7.44613 18.9129 8.55968 20.2073 8.31422C20.3702 8.28349 20.5305 8.23044 20.6819 8.15692L21.9536 9.41057C21.973 9.42937 21.9881 9.45192 21.9982 9.47678C22.0082 9.50129 22.0134 9.52909 22.0134 9.55763C22.0134 9.60921 21.9933 9.66518 21.9533 9.70468L20.5427 11.0952C20.5357 11.082 20.5275 11.0692 20.5182 11.056C20.5093 11.045 20.5015 11.0352 20.4908 11.0249L20.0878 10.6276C19.8447 10.388 19.4502 10.707 19.6577 10.9938C19.6666 11.0048 19.6747 11.0143 19.6851 11.0249L20.0878 11.4222ZM15.2487 8.35738L18.0367 11.1069C18.2093 11.2861 18.2961 11.5173 18.2961 11.7474C18.2961 11.9859 18.2041 12.2248 18.0208 12.4051L13.866 16.5008C13.6831 16.6815 13.4404 16.7723 13.1992 16.7723C12.9572 16.7723 12.7149 16.6815 12.5319 16.5008L9.75986 13.7682C9.57654 13.5878 9.48451 13.3489 9.48451 13.1104C9.48451 12.8734 9.57654 12.6349 9.75986 12.4538L13.9146 8.35702C14.0983 8.17594 14.3403 8.08558 14.5819 8.08558C14.8234 8.08668 15.0661 8.1774 15.2487 8.35738ZM17.6326 11.4727L14.8605 8.74039C14.824 8.70419 14.7806 8.67545 14.7328 8.6558C14.6849 8.63615 14.6337 8.62599 14.5819 8.62589C14.4805 8.62699 14.3792 8.66467 14.3028 8.74003L10.148 12.8357C10.072 12.9103 10.0337 13.0102 10.0337 13.1104C10.0337 13.2103 10.072 13.3105 10.148 13.3855L12.9201 16.1182C12.9962 16.1932 13.0978 16.2309 13.1992 16.2309C13.3005 16.2309 13.4018 16.1932 13.4778 16.1182L17.6326 12.0225C17.7087 11.9475 17.7469 11.8473 17.7469 11.7474C17.7469 11.6519 17.712 11.5561 17.643 11.4822L17.6326 11.4727ZM11.2739 17.7611C11.517 18.0007 11.9118 17.6813 11.7044 17.3949C11.6951 17.3835 11.6873 17.374 11.6769 17.3638L11.2739 16.9661C11.0309 16.7265 10.636 17.0459 10.8438 17.3327C10.8524 17.3437 10.8605 17.3532 10.8709 17.3638L11.2739 17.7611ZM10.0653 16.5692C10.3083 16.8092 10.7032 16.4899 10.4954 16.203C10.4865 16.1921 10.4787 16.1826 10.4679 16.172L10.0653 15.7747C9.8222 15.5351 9.42736 15.8544 9.6348 16.1409C9.64371 16.1518 9.6515 16.1617 9.66226 16.172L10.0653 16.5692ZM8.85625 15.3778C9.09931 15.6174 9.49416 15.298 9.28672 15.0116C9.27781 15.0002 9.27002 14.9907 9.25963 14.9805L8.85625 14.5828C8.61318 14.3432 8.21834 14.6626 8.42615 14.9494C8.43506 14.9604 8.44285 14.9699 8.45324 14.9805L8.85625 15.3778ZM18.8791 10.2304C19.1226 10.4703 19.517 10.151 19.3096 9.86455C19.3003 9.85321 19.2925 9.8437 19.2821 9.83345L18.8791 9.43581C18.6357 9.1962 18.2412 9.51556 18.4486 9.80199C18.4579 9.81297 18.4657 9.82284 18.4765 9.83309L18.8791 10.2304ZM17.6705 9.0389C17.9135 9.27851 18.3084 8.95915 18.1006 8.67272C18.0917 8.66174 18.0839 8.65223 18.0731 8.64162L17.6705 8.24471C17.427 8.00474 17.0326 8.32409 17.24 8.61053C17.2493 8.6215 17.2571 8.63101 17.2675 8.64162L17.6705 9.0389ZM16.4618 7.84743C16.7049 8.08704 17.0994 7.76769 16.8919 7.48125C16.8826 7.46991 16.8748 7.4604 16.8645 7.45016L16.4618 7.05288C16.2184 6.81291 15.8239 7.13263 16.0313 7.4187C16.0403 7.43004 16.048 7.43955 16.0588 7.44979L16.4618 7.84743Z" fill="#666666"/>
</g>
<defs>
<clipPath id="clip0_470_21189">
<rect width="19" height="18" fill="white" transform="translate(3.58203 3)"/>
</clipPath>
</defs>
</svg>
