<svg width="25" height="24" viewBox="0 0 25 24" fill="none" xmlns="http://www.w3.org/2000/svg">
<g clip-path="url(#clip0_470_21176)">
<path fill-rule="evenodd" clip-rule="evenodd" d="M5.23926 8.58664H12.0098L10.8394 6.53305C10.9521 5.96178 11.2803 5.76889 11.8252 5.95585L13.3237 8.58664H13.9155L16.583 4.05212C17.0972 3.91858 17.4795 4.01799 17.5703 4.62932L15.2441 8.58664H22.2622C22.5317 8.58664 22.7515 8.80921 22.7515 9.08223V20.5046C22.7515 20.7761 22.5317 21.0002 22.2622 21.0002H5.23926C4.96973 21.0002 4.75 20.7776 4.75 20.5046V9.08223C4.75 8.81069 4.96973 8.58664 5.23926 8.58664ZM20.188 19.1439C20.5396 19.1439 20.8252 19.4333 20.8252 19.7894C20.8252 20.1455 20.5396 20.4349 20.188 20.4349C19.8364 20.4349 19.5508 20.1455 19.5508 19.7894C19.5522 19.4333 19.8364 19.1439 20.188 19.1439ZM6.07275 19.2849H10.8584C10.9316 19.2849 10.9917 19.3457 10.9917 19.4214V20.1559C10.9917 20.2301 10.9316 20.2924 10.8584 20.2924H6.07275C5.99951 20.2924 5.93945 20.2316 5.93945 20.1559V19.4214C5.93945 19.3472 5.99951 19.2849 6.07275 19.2849ZM6.33203 9.72175H21.1665C21.3833 9.72175 21.5605 9.89981 21.5605 10.1164V18.1068C21.5605 18.3234 21.3833 18.5015 21.1665 18.5015H6.33203C6.11523 18.5015 5.93799 18.3234 5.93799 18.1068V10.1164C5.93945 9.89981 6.11523 9.72175 6.33203 9.72175Z" fill="#666666"/>
</g>
<defs>
<clipPath id="clip0_470_21176">
<rect width="18" height="17" fill="white" transform="translate(4.75 4)"/>
</clipPath>
</defs>
</svg>
