<svg width="14" height="18" viewBox="0 0 14 18" fill="none" xmlns="http://www.w3.org/2000/svg">
<path d="M7.0013 4.83333V7.33333M7.0013 9.83333H7.00964M9.5013 13.1667V14C9.5013 14.7766 9.5013 15.1648 9.37447 15.4712C9.2053 15.8795 8.8808 16.204 8.47247 16.3732C8.16614 16.5 7.77789 16.5 7.0013 16.5C6.22472 16.5 5.83647 16.5 5.53014 16.3732C5.12179 16.204 4.79733 15.8795 4.62817 15.4712C4.5013 15.1648 4.5013 14.7766 4.5013 14V13.1667M1.16797 7.5345C1.16797 4.20173 3.77964 1.5 7.0013 1.5C10.223 1.5 12.8346 4.20173 12.8346 7.5345C12.8346 10.009 11.3949 12.2355 9.33464 13.1667H4.66797C2.60774 12.2355 1.16797 10.009 1.16797 7.5345Z" stroke="white" stroke-width="1.3" stroke-linecap="round" stroke-linejoin="round"/>
</svg>
