<svg width="20" height="20" viewBox="0 0 20 20" fill="none" xmlns="http://www.w3.org/2000/svg">
<path d="M18.3333 9.08268V3.41602C18.3333 2.16602 17.8 1.66602 16.475 1.66602H13.1083C11.7833 1.66602 11.25 2.16602 11.25 3.41602V9.08268C11.25 10.3327 11.7833 10.8327 13.1083 10.8327H16.475C17.8 10.8327 18.3333 10.3327 18.3333 9.08268Z" stroke="white" stroke-width="1.5" stroke-linecap="round" stroke-linejoin="round"/>
<path d="M18.3333 16.584V15.084C18.3333 13.834 17.8 13.334 16.475 13.334H13.1083C11.7833 13.334 11.25 13.834 11.25 15.084V16.584C11.25 17.834 11.7833 18.334 13.1083 18.334H16.475C17.8 18.334 18.3333 17.834 18.3333 16.584Z" stroke="white" stroke-width="1.5" stroke-linecap="round" stroke-linejoin="round"/>
<path d="M8.7513 10.916V16.5827C8.7513 17.8327 8.21797 18.3327 6.89297 18.3327H3.5263C2.2013 18.3327 1.66797 17.8327 1.66797 16.5827V10.916C1.66797 9.66602 2.2013 9.16602 3.5263 9.16602H6.89297C8.21797 9.16602 8.7513 9.66602 8.7513 10.916Z" stroke="white" stroke-width="1.5" stroke-linecap="round" stroke-linejoin="round"/>
<path d="M8.7513 3.41602V4.91602C8.7513 6.16602 8.21797 6.66602 6.89297 6.66602H3.5263C2.2013 6.66602 1.66797 6.16602 1.66797 4.91602V3.41602C1.66797 2.16602 2.2013 1.66602 3.5263 1.66602H6.89297C8.21797 1.66602 8.7513 2.16602 8.7513 3.41602Z" stroke="white" stroke-width="1.5" stroke-linecap="round" stroke-linejoin="round"/>
</svg>
