<svg width="25" height="24" viewBox="0 0 25 24" fill="none" xmlns="http://www.w3.org/2000/svg">
<path d="M10.9619 14.3H12.332V18.7299L12.332 18.762C12.332 19.18 12.332 19.5357 12.3594 19.7907C12.3732 19.9191 12.3981 20.0698 12.4583 20.2046C12.5236 20.3507 12.662 20.5404 12.9207 20.5974C13.1794 20.6544 13.3847 20.5403 13.5053 20.4352C13.6166 20.3382 13.7025 20.2119 13.7689 20.1012C13.901 19.8813 14.0504 19.5585 14.226 19.1791L14.2395 19.15L16.9708 13.2503L16.9879 13.2134C17.2692 12.6058 17.504 12.0988 17.6256 11.6859C17.752 11.2564 17.7946 10.8046 17.5311 10.3923C17.2676 9.97997 16.8397 9.82878 16.3969 9.7631C15.9711 9.69995 15.4124 9.69997 14.7429 9.7L14.7022 9.7H13.332V5.27013L13.332 5.23804C13.332 4.82003 13.3321 4.4643 13.3046 4.20926C13.2908 4.08088 13.266 3.93022 13.2057 3.79539C13.1405 3.64932 13.0021 3.4596 12.7434 3.40262C12.4846 3.34563 12.2794 3.45966 12.1587 3.56479C12.0474 3.66183 11.9616 3.78811 11.8951 3.89881C11.7631 4.11873 11.6136 4.44155 11.438 4.82089L11.4246 4.85L8.69323 10.7497L8.67613 10.7866C8.39483 11.3942 8.16007 11.9012 8.0385 12.3141C7.91206 12.7436 7.8695 13.1954 8.13299 13.6077C8.39647 14.02 8.82434 14.1712 9.26718 14.2369C9.69296 14.3 10.2517 14.3 10.9212 14.3L10.9619 14.3Z" stroke="#666666"/>
</svg>
