<svg width="16" height="18" viewBox="0 0 16 18" fill="none" xmlns="http://www.w3.org/2000/svg">
<path d="M5.5013 13.1667H2.67163C1.62295 13.1667 1.0986 13.1667 0.988284 13.0852C0.864334 12.9937 0.834051 12.9397 0.820634 12.7863C0.808684 12.6497 1.13006 12.1238 1.77281 11.0722C2.43643 9.98625 2.99993 8.40517 2.99993 6.16667C2.99993 4.92899 3.52671 3.74201 4.46439 2.86683C5.40208 1.99167 6.67388 1.5 7.99997 1.5C9.32605 1.5 10.5978 1.99167 11.5355 2.86683C12.4731 3.74201 13 4.92899 13 6.16667C13 8.40517 13.5634 9.98625 14.2271 11.0722C14.8698 12.1238 15.1911 12.6497 15.1792 12.7863C15.1658 12.9397 15.1356 12.9937 15.0116 13.0852C14.9012 13.1667 14.3769 13.1667 13.3282 13.1667H10.5M5.5013 13.1667L5.49993 14C5.49993 15.3807 6.61922 16.5 7.99997 16.5C9.38063 16.5 10.5 15.3807 10.5 14V13.1667M5.5013 13.1667H10.5" stroke="white" stroke-width="1.3" stroke-linecap="round" stroke-linejoin="round"/>
</svg>
