<svg width="16" height="16" viewBox="0 0 16 16" fill="none" xmlns="http://www.w3.org/2000/svg">
<path d="M4.9987 2.66732C5.36689 2.66732 5.66537 2.36884 5.66537 2.00065C5.66537 1.63246 5.36689 1.33398 4.9987 1.33398H3.9987C2.52594 1.33398 1.33203 2.52789 1.33203 4.00065V12.0007C1.33203 13.4734 2.52594 14.6673 3.9987 14.6673H4.9987C5.36689 14.6673 5.66536 14.3688 5.66536 14.0007C5.66536 13.6325 5.36689 13.334 4.9987 13.334H3.9987C3.26232 13.334 2.66536 12.737 2.66536 12.0007L2.66537 4.00065C2.66537 3.26427 3.26232 2.66732 3.9987 2.66732H4.9987Z" fill="white"/>
<path d="M15.1368 8.47206C15.3971 8.21171 15.3971 7.7896 15.1368 7.52925L12.4701 4.86258C12.2098 4.60223 11.7876 4.60223 11.5273 4.86258C11.2669 5.12293 11.2669 5.54504 11.5273 5.80539L13.0559 7.33398L5.33203 7.33398C4.96384 7.33398 4.66536 7.63246 4.66536 8.00065C4.66536 8.36884 4.96384 8.66732 5.33203 8.66732L13.0559 8.66732L11.5273 10.1959C11.2669 10.4563 11.2669 10.8784 11.5273 11.1387C11.7876 11.3991 12.2098 11.3991 12.4701 11.1387L15.1368 8.47206Z" fill="white"/>
</svg>
