<svg width="37" height="37" viewBox="0 0 37 37" fill="none" xmlns="http://www.w3.org/2000/svg">
<path d="M23.1246 3.08334C17.9181 3.08553 13.456 6.80588 12.5176 11.9271C16.9991 9.47474 22.6201 11.1197 25.0725 15.6012C26.5865 18.3679 26.5865 21.7153 25.0725 24.4821C30.9328 23.4085 34.8133 17.7875 33.7398 11.9272C32.8011 6.80278 28.3343 3.08137 23.1246 3.08334Z" fill="#AAC645" fill-opacity="0.12"/>
<path d="M10.7923 33.9167C15.0495 33.9167 18.5007 30.4655 18.5007 26.2083C18.5007 21.9511 15.0495 18.5 10.7923 18.5C6.53512 18.5 3.08398 21.9511 3.08398 26.2083C3.08398 30.4655 6.53512 33.9167 10.7923 33.9167Z" fill="#AAC645"/>
<path d="M16.9577 10.7917C12.2041 10.7921 8.22472 14.3954 7.75391 19.1256C11.6633 17.446 16.1941 19.2535 17.8737 23.1629C18.7079 25.1046 18.7079 27.3037 17.8737 29.2454C22.957 28.74 26.6681 24.2094 26.1627 19.126C25.6923 14.3951 21.7119 10.7912 16.9577 10.7917Z" fill="#AAC645" fill-opacity="0.4"/>
</svg>
