<svg width="38" height="37" viewBox="0 0 38 37" fill="none" xmlns="http://www.w3.org/2000/svg">
<path d="M21.4785 13.875C20.2014 13.875 19.166 12.8397 19.166 11.5625C19.166 10.2853 20.2014 9.25 21.4785 9.25C22.7557 9.25 23.791 10.2853 23.791 11.5625C23.7896 12.8391 22.7551 13.8736 21.4785 13.875Z" fill="#AAC645" fill-opacity="0.01"/>
<path d="M29.9583 3.08334H8.375C5.82377 3.09079 3.75745 5.15712 3.75 7.70834V21.3675L9.73167 15.3858C11.5624 13.6438 14.4377 13.6438 16.2683 15.3858L20.6951 19.8366L22.0633 18.4684C23.8724 16.6699 26.7943 16.6699 28.6033 18.4684L34.5833 24.4484V7.70834C34.5759 5.15712 32.5096 3.09079 29.9583 3.08334ZM21.4792 13.875C20.202 13.875 19.1667 12.8397 19.1667 11.5625C19.1667 10.2853 20.202 9.25001 21.4792 9.25001C22.7563 9.25001 23.7917 10.2853 23.7917 11.5625C23.7903 12.8391 22.7557 13.8736 21.4792 13.875Z" fill="#AAC645" fill-opacity="0.4"/>
<path d="M16.2683 15.3858C14.4377 13.6438 11.5623 13.6438 9.73167 15.3858L3.75 21.3675V29.2917C3.75746 31.8429 5.82379 33.9092 8.375 33.9167H29.9583C31.215 33.9162 32.4172 33.4041 33.2883 32.4983L16.2683 15.3858Z" fill="#AAC645"/>
<path d="M34.5836 24.4484L28.6036 18.4684C26.7945 16.6699 23.8726 16.6699 22.0636 18.4684L20.6953 19.8366L33.2819 32.4915C34.1176 31.6362 34.585 30.4875 34.5836 29.2917V24.4484Z" fill="#AAC645" fill-opacity="0.12"/>
</svg>
