<svg width="38" height="37" viewBox="0 0 38 37" fill="none" xmlns="http://www.w3.org/2000/svg">
<path d="M6.5013 24.6667C4.79842 24.6667 3.41797 23.2862 3.41797 21.5833C3.41797 19.8805 4.79842 18.5 6.5013 18.5C8.20418 18.5 9.58464 19.8805 9.58464 21.5833C9.58243 23.2853 8.20327 24.6645 6.5013 24.6667ZM6.5013 9.25001C4.79842 9.25001 3.41797 7.86956 3.41797 6.16668C3.41797 4.4638 4.79842 3.08334 6.5013 3.08334C8.20418 3.08334 9.58464 4.4638 9.58464 6.16668C9.58243 7.86865 8.20327 9.24781 6.5013 9.25001ZM21.918 9.25001C20.2151 9.25001 18.8346 7.86956 18.8346 6.16668C18.8346 4.4638 20.2151 3.08334 21.918 3.08334C23.6208 3.08334 25.0013 4.4638 25.0013 6.16668C24.9991 7.86865 23.6199 9.24781 21.918 9.25001ZM21.918 24.6667C20.2151 24.6667 18.8346 23.2862 18.8346 21.5833C18.8346 19.8805 20.2151 18.5 21.918 18.5C23.6208 18.5 25.0013 19.8805 25.0013 21.5833C24.9991 23.2853 23.6199 24.6645 21.918 24.6667Z" fill="#AAC645" fill-opacity="0.8"/>
<path d="M15.7513 33.9167C14.0484 33.9167 12.668 32.5362 12.668 30.8333C12.668 29.1305 14.0484 27.75 15.7513 27.75C17.4542 27.75 18.8346 29.1305 18.8346 30.8333C18.8324 32.5353 17.4533 33.9145 15.7513 33.9167ZM15.7513 18.5C14.0484 18.5 12.668 17.1196 12.668 15.4167C12.668 13.7138 14.0484 12.3333 15.7513 12.3333C17.4542 12.3333 18.8346 13.7138 18.8346 15.4167C18.8324 17.1186 17.4533 18.4978 15.7513 18.5ZM31.168 18.5C29.4651 18.5 28.0846 17.1196 28.0846 15.4167C28.0846 13.7138 29.4651 12.3333 31.168 12.3333C32.8709 12.3333 34.2513 13.7138 34.2513 15.4167C34.2491 17.1186 32.8699 18.4978 31.168 18.5ZM31.168 33.9167C29.4651 33.9167 28.0846 32.5362 28.0846 30.8333C28.0846 29.1305 29.4651 27.75 31.168 27.75C32.8709 27.75 34.2513 29.1305 34.2513 30.8333C34.2491 32.5353 32.8699 33.9145 31.168 33.9167Z" fill="#AAC645"/>
<path d="M19.2631 7.70833C18.691 6.76016 18.691 5.57317 19.2631 4.625H9.15491C9.727 5.57317 9.727 6.76016 9.15491 7.70833H19.2631ZM6.50065 18.5C7.0436 18.5031 7.57584 18.6512 8.04232 18.9291V8.82092C7.09415 9.39302 5.90716 9.39302 4.95898 8.82092V18.9291C5.42546 18.6512 5.95771 18.5031 6.50065 18.5Z" fill="#AAC645" fill-opacity="0.12"/>
<path d="M31.1673 27.75C31.7103 27.7531 32.2425 27.9012 32.709 28.1791V18.0709C31.7608 18.643 30.5738 18.643 29.6257 18.0709V28.1791C30.0921 27.9012 30.6244 27.7531 31.1673 27.75ZM15.7507 27.75C16.2936 27.7531 16.8258 27.9012 17.2923 28.1791V18.0709C16.3441 18.643 15.1572 18.643 14.209 18.0709V28.1791C14.6755 27.9012 15.2077 27.7531 15.7507 27.75Z" fill="#AAC645" fill-opacity="0.6"/>
<path d="M19.2625 20.0417H17.2917V23.125H19.2625C18.6904 22.1768 18.6904 20.9898 19.2625 20.0417ZM14.2084 23.125V20.0417H9.1543C9.72639 20.9898 9.72639 22.1768 9.1543 23.125H14.2084Z" fill="#AAC645" fill-opacity="0.12"/>
<path d="M28.5125 29.2917H18.4043C18.9764 30.2398 18.9764 31.4268 18.4043 32.375H28.5125C27.9404 31.4268 27.9404 30.2398 28.5125 29.2917ZM28.5125 16.9583C27.9404 16.0102 27.9404 14.8232 28.5125 13.875H18.4043C18.9764 14.8232 18.9764 16.0102 18.4043 16.9583H28.5125Z" fill="#AAC645" fill-opacity="0.8"/>
<path d="M23.4583 13.875V8.82092C22.5102 9.39302 21.3232 9.39302 20.375 8.82092V13.875H23.4583ZM20.375 16.9583V18.9291C21.3232 18.357 22.5102 18.357 23.4583 18.9291V16.9583H20.375Z" fill="#AAC645" fill-opacity="0.12"/>
</svg>
