<svg width="37" height="37" viewBox="0 0 37 37" fill="none" xmlns="http://www.w3.org/2000/svg">
<path d="M9.24935 25.4375C8.18216 25.4375 7.13893 25.1211 6.25159 24.5282C5.36425 23.9353 4.67265 23.0925 4.26425 22.1066C3.85585 21.1206 3.749 20.0357 3.9572 18.989C4.1654 17.9423 4.6793 16.9809 5.43392 16.2262C6.18854 15.4716 7.14999 14.9577 8.19668 14.7495C9.24337 14.5413 10.3283 14.6482 11.3142 15.0566C12.3002 15.465 13.1429 16.1566 13.7358 17.0439C14.3287 17.9313 14.6452 18.9745 14.6452 20.0417C14.6435 21.4722 14.0744 22.8437 13.0629 23.8552C12.0513 24.8667 10.6799 25.4358 9.24935 25.4375Z" fill="#AAC645" fill-opacity="0.4"/>
<path d="M13.3197 23.544C12.8202 24.1371 12.1971 24.6139 11.494 24.941C10.7909 25.268 10.0248 25.4375 9.24935 25.4375C8.4739 25.4375 7.70782 25.268 7.00472 24.941C6.30163 24.6139 5.6785 24.1371 5.17895 23.544C4.06893 24.2322 3.15248 25.1918 2.516 26.3322C1.87951 27.4727 1.54397 28.7565 1.54102 30.0625C1.54102 30.4714 1.70344 30.8635 1.99256 31.1526C2.28168 31.4418 2.67381 31.6042 3.08268 31.6042H15.416C15.8249 31.6042 16.217 31.4418 16.5061 31.1526C16.7953 30.8635 16.9577 30.4714 16.9577 30.0625C16.9547 28.7565 16.6192 27.4727 15.9827 26.3322C15.3462 25.1918 14.4298 24.2322 13.3197 23.544V23.544ZM27.7493 25.4375C26.6822 25.4375 25.6389 25.1211 24.7516 24.5282C23.8642 23.9352 23.1726 23.0925 22.7642 22.1066C22.3559 21.1206 22.249 20.0357 22.4572 18.989C22.6654 17.9423 23.1793 16.9809 23.9339 16.2262C24.6885 15.4716 25.65 14.9577 26.6967 14.7495C27.7434 14.5413 28.8283 14.6482 29.8142 15.0566C30.8002 15.465 31.6429 16.1566 32.2358 17.0439C32.8287 17.9313 33.1452 18.9745 33.1452 20.0417C33.1435 21.4722 32.5744 22.8437 31.5629 23.8552C30.5513 24.8667 29.1799 25.4358 27.7493 25.4375Z" fill="#AAC645"/>
<path d="M31.8198 23.544C31.3202 24.1371 30.6971 24.6139 29.994 24.9409C29.2909 25.268 28.5248 25.4375 27.7493 25.4375C26.9739 25.4375 26.2078 25.268 25.5047 24.9409C24.8016 24.6139 24.1785 24.1371 23.6789 23.544C22.5689 24.2322 21.6525 25.1918 21.016 26.3322C20.3795 27.4727 20.044 28.7565 20.041 30.0625C20.041 30.4714 20.2034 30.8635 20.4926 31.1526C20.7817 31.4417 21.1738 31.6042 21.5827 31.6042H33.916C34.3249 31.6042 34.717 31.4417 35.0061 31.1526C35.2953 30.8635 35.4577 30.4714 35.4577 30.0625C35.4547 28.7565 35.1192 27.4727 34.4827 26.3322C33.8462 25.1918 32.9298 24.2322 31.8198 23.544V23.544Z" fill="#AAC645" fill-opacity="0.8"/>
<path d="M26.5281 8.93088L23.4447 5.84754C23.1548 5.56278 22.7641 5.40405 22.3577 5.40589C21.9513 5.40773 21.562 5.56999 21.2746 5.85737C20.9873 6.14475 20.825 6.53398 20.8232 6.94039C20.8213 7.3468 20.9801 7.73749 21.2648 8.02746L21.7165 8.47917H15.2848L15.7365 8.02746C16.0226 7.73775 16.1824 7.34662 16.1811 6.93948C16.1798 6.53233 16.0175 6.14223 15.7296 5.85433C15.4417 5.56644 15.0516 5.40414 14.6444 5.40287C14.2373 5.4016 13.8462 5.56145 13.5565 5.84754L10.4732 8.93088C10.33 9.07399 10.2164 9.24391 10.1389 9.43094C10.0614 9.61797 10.0215 9.81843 10.0215 10.0209C10.0215 10.2233 10.0614 10.4238 10.1389 10.6108C10.2164 10.7978 10.33 10.9678 10.4732 11.1109L13.5565 14.1942C13.8462 14.4803 14.2373 14.6401 14.6445 14.6388C15.0516 14.6376 15.4417 14.4752 15.7296 14.1873C16.0175 13.8994 16.1798 13.5093 16.1811 13.1022C16.1823 12.695 16.0225 12.3039 15.7364 12.0142L15.2847 11.5625H21.7163L21.2646 12.0142C20.9756 12.3033 20.8132 12.6954 20.8132 13.1042C20.8132 13.5131 20.9756 13.9051 21.2647 14.1942C21.5538 14.4833 21.9459 14.6457 22.3548 14.6457C22.7636 14.6456 23.1557 14.4832 23.4447 14.1941L26.5281 11.1108C26.6712 10.9677 26.7848 10.7978 26.8623 10.6107C26.9398 10.4237 26.9797 10.2233 26.9797 10.0208C26.9797 9.8184 26.9398 9.61794 26.8623 9.43092C26.7848 9.24391 26.6712 9.07399 26.5281 8.93088V8.93088Z" fill="#AAC645"/>
</svg>
