<svg width="38" height="38" viewBox="0 0 38 38" fill="none" xmlns="http://www.w3.org/2000/svg">
<path d="M28.0103 23.0421L24.2702 26.481C22.3471 28.1575 20.0876 29.4032 17.6434 30.1345L18.6358 34.7644C18.6865 35.0008 18.7921 35.222 18.944 35.4101C19.0959 35.5982 19.29 35.7479 19.5104 35.8472C19.7309 35.9464 19.9716 35.9925 20.2131 35.9816C20.4547 35.9707 20.6902 35.9032 20.9009 35.7844L26.9215 32.3887C27.7689 31.8738 28.4308 31.1031 28.8118 30.1877C29.1928 29.2723 29.2731 28.2595 29.0413 27.2955L28.0103 23.0421ZM11.8676 14.0295L15.0877 10.2063L11.0719 9.23742C10.0957 8.89699 9.02919 8.92135 8.06948 9.306C7.10977 9.69064 6.32167 10.4096 5.85076 11.33L2.4588 17.3424C2.33995 17.553 2.27231 17.7886 2.26135 18.0302C2.25039 18.2717 2.29642 18.5125 2.39571 18.733C2.495 18.9535 2.64478 19.1475 2.83293 19.2994C3.02108 19.4513 3.24233 19.5568 3.47879 19.6074L8.21595 20.6229C9.0013 18.2122 10.2408 15.9741 11.8676 14.0295V14.0295ZM26.4643 14.0917C26.9217 14.0917 27.3688 13.9561 27.749 13.702C28.1293 13.4479 28.4257 13.0867 28.6008 12.6642C28.7758 12.2416 28.8216 11.7767 28.7324 11.3281C28.6431 10.8795 28.4229 10.4675 28.0995 10.144C27.7761 9.82063 27.364 9.60039 26.9154 9.51116C26.4669 9.42193 26.0019 9.46773 25.5793 9.64276C25.1568 9.81778 24.7956 10.1142 24.5415 10.4945C24.2874 10.8748 24.1518 11.3219 24.1518 11.7792C24.152 12.3925 24.3957 12.9805 24.8294 13.4142C25.263 13.8478 25.851 14.0915 26.4643 14.0917V14.0917Z" fill="#AAC645"/>
<path d="M35.5103 3.67891C35.4407 3.41486 35.3023 3.17399 35.1092 2.98091C34.9161 2.78782 34.6753 2.64944 34.4112 2.57987C31.2487 1.75781 27.9183 1.84596 24.8037 2.83417C21.6891 3.82239 18.9171 5.67045 16.807 8.16543L11.8681 14.0295C9.40083 16.9723 7.83564 20.5648 7.36055 24.3755C7.33008 24.6097 7.3538 24.8478 7.42989 25.0713C7.50598 25.2949 7.63239 25.498 7.7994 25.665L12.5787 30.4443C12.7218 30.5875 12.8917 30.7011 13.0787 30.7786C13.2658 30.8561 13.4662 30.896 13.6687 30.896C13.7131 30.896 13.7575 30.8938 13.8027 30.89C17.6719 30.5703 21.3386 29.0259 24.2706 26.481L29.9178 21.2885C32.4217 19.1839 34.2765 16.4117 35.2665 13.2943C36.2565 10.1769 36.3411 6.84247 35.5103 3.67891V3.67891ZM26.4647 14.0917C26.0074 14.0917 25.5603 13.956 25.18 13.7019C24.7997 13.4478 24.5033 13.0867 24.3283 12.6641C24.1532 12.2416 24.1074 11.7766 24.1967 11.328C24.2859 10.8794 24.5061 10.4674 24.8295 10.144C25.1529 9.82058 25.565 9.60033 26.0136 9.5111C26.4622 9.42188 26.9271 9.46767 27.3497 9.6427C27.7722 9.81773 28.1334 10.1141 28.3875 10.4944C28.6416 10.8747 28.7772 11.3218 28.7772 11.7792C28.777 12.3924 28.5333 12.9805 28.0997 13.4141C27.666 13.8477 27.078 14.0914 26.4647 14.0917V14.0917Z" fill="#AAC645" fill-opacity="0.4"/>
</svg>
