<svg width="38" height="38" viewBox="0 0 38 38" fill="none" xmlns="http://www.w3.org/2000/svg">
<path d="M29.6263 9.75H8.04297C5.48866 9.75 3.41797 11.8207 3.41797 14.375V18.5697L13.959 22.0833H23.7103L34.2513 18.5697V14.375C34.2513 11.8207 32.1806 9.75 29.6263 9.75Z" fill="#AAC645" fill-opacity="0.4"/>
<path d="M15.7513 9.75V8.20833H21.918V9.75H25.0013V8.20833C24.9994 6.50626 23.62 5.12694 21.918 5.125H15.7513C14.0492 5.12694 12.6699 6.50626 12.668 8.20833V9.75H15.7513ZM13.959 22.0833L3.41797 18.5696V28.25C3.42076 30.8032 5.4898 32.8722 8.04297 32.875H29.6263C32.1795 32.8722 34.2485 30.8032 34.2513 28.25V18.5696L23.7103 22.0833H13.959Z" fill="#AAC645"/>
</svg>
