<svg width="34" height="23" viewBox="0 0 34 23" fill="none" xmlns="http://www.w3.org/2000/svg">
<g clip-path="url(#clip0_1808_27193)">
<path fill-rule="evenodd" clip-rule="evenodd" d="M11.7567 16.3981C11.7126 16.3502 11.6604 16.313 11.5998 16.2865C11.5393 16.26 11.473 16.2467 11.401 16.2467C11.3629 16.2467 11.3234 16.2502 11.2823 16.2574C11.2412 16.2643 11.2011 16.2771 11.1616 16.295C11.1222 16.313 11.0847 16.3379 11.0492 16.3697C11.0137 16.4014 10.9827 16.4416 10.9565 16.4899C10.9142 16.414 10.8567 16.3546 10.7844 16.3113C10.712 16.2683 10.6292 16.2467 10.536 16.2467C10.5047 16.2467 10.4724 16.2498 10.4388 16.2558C10.4054 16.262 10.3721 16.2726 10.3392 16.2878C10.3061 16.303 10.2746 16.3236 10.2445 16.3497C10.2144 16.3758 10.1872 16.4087 10.1626 16.4485V16.2821H9.89844V17.6445H10.1651V16.8894C10.1651 16.8316 10.1735 16.7802 10.1905 16.7351C10.2074 16.69 10.2301 16.6524 10.2585 16.6221C10.2869 16.5916 10.32 16.5687 10.3582 16.5531C10.3963 16.5375 10.4369 16.5296 10.48 16.5296C10.5698 16.5296 10.6395 16.5603 10.6889 16.6221C10.7384 16.6837 10.7632 16.7719 10.7632 16.8865V17.6445H11.0299V16.8894C11.0299 16.8316 11.0384 16.7802 11.0553 16.7351C11.0723 16.69 11.0949 16.6524 11.1233 16.6221C11.1516 16.5916 11.1849 16.5687 11.2229 16.5531C11.2611 16.5375 11.3017 16.5296 11.3449 16.5296C11.4346 16.5296 11.5042 16.5603 11.5538 16.6221C11.6034 16.6837 11.6281 16.7719 11.6281 16.8865V17.6445H11.8948V16.7883C11.8948 16.7088 11.8826 16.6358 11.8586 16.5694C11.8345 16.503 11.8003 16.4459 11.7564 16.398L11.7567 16.3981ZM24.2787 17.5526V17.5751H24.3027C24.3076 17.5751 24.3115 17.5744 24.314 17.5727C24.3167 17.571 24.318 17.5682 24.318 17.5641C24.318 17.56 24.3167 17.5571 24.314 17.5553C24.3114 17.5535 24.3076 17.5526 24.3027 17.5526H24.2787ZM24.3033 17.5225C24.3189 17.5225 24.3307 17.5263 24.3388 17.5338C24.3469 17.5413 24.3509 17.5512 24.3509 17.564C24.3509 17.5738 24.3481 17.582 24.3423 17.5885C24.3364 17.5949 24.328 17.5993 24.317 17.6012L24.3524 17.6455H24.3141L24.2825 17.6025H24.2788V17.6455H24.2469V17.5224H24.3034L24.3033 17.5225ZM24.2959 17.6847C24.3086 17.6847 24.3206 17.682 24.3319 17.6767C24.343 17.6714 24.3529 17.6642 24.3611 17.6553C24.3694 17.6462 24.3759 17.6355 24.3808 17.6233C24.3855 17.6112 24.3879 17.5981 24.3879 17.584C24.3879 17.5701 24.3855 17.5571 24.3808 17.5448C24.376 17.5326 24.3695 17.522 24.3611 17.513C24.353 17.504 24.3431 17.4969 24.3319 17.4917C24.3206 17.4865 24.3086 17.4838 24.2959 17.4838C24.2827 17.4838 24.2706 17.4865 24.2592 17.4917C24.2479 17.497 24.238 17.504 24.2297 17.513C24.2214 17.522 24.2147 17.5326 24.21 17.5448C24.2053 17.5571 24.2028 17.5701 24.2028 17.584C24.2028 17.598 24.2052 17.6112 24.21 17.6233C24.2147 17.6355 24.2213 17.6462 24.2297 17.6553C24.238 17.6642 24.2479 17.6714 24.2592 17.6767C24.2706 17.682 24.2827 17.6847 24.2959 17.6847ZM24.2959 17.4452C24.3141 17.4452 24.3312 17.4489 24.3473 17.4563C24.3633 17.4635 24.3772 17.4735 24.3891 17.486C24.401 17.4986 24.4104 17.5132 24.4172 17.53C24.4242 17.5469 24.4275 17.5648 24.4275 17.5841C24.4275 17.6031 24.4242 17.6211 24.4172 17.6379C24.4104 17.6547 24.4011 17.6696 24.3891 17.6822C24.3772 17.6951 24.3633 17.705 24.3473 17.7123C24.3312 17.7197 24.3141 17.7234 24.2959 17.7234C24.2772 17.7234 24.2597 17.7197 24.2436 17.7123C24.2274 17.705 24.2134 17.6951 24.2015 17.6822C24.1897 17.6696 24.1803 17.6548 24.1736 17.6379C24.1668 17.6211 24.1634 17.603 24.1634 17.5841C24.1634 17.5648 24.1667 17.547 24.1736 17.53C24.1803 17.5132 24.1897 17.4985 24.2015 17.486C24.2134 17.4735 24.2274 17.4635 24.2436 17.4563C24.2597 17.4489 24.2772 17.4452 24.2959 17.4452ZM19.0066 16.6485C19.0415 16.6101 19.0831 16.5802 19.1313 16.5588C19.1794 16.5375 19.2314 16.5268 19.2874 16.5268C19.3492 16.5268 19.4063 16.5374 19.4592 16.5588C19.5104 16.5794 19.5548 16.6083 19.5924 16.6449L19.7244 16.4068C19.6749 16.364 19.6191 16.3288 19.5571 16.3015C19.4744 16.265 19.3847 16.2468 19.2874 16.2468C19.1903 16.2468 19.1005 16.265 19.0178 16.3015C18.935 16.338 18.8638 16.3883 18.8039 16.4523C18.744 16.5162 18.697 16.5919 18.6629 16.6791C18.6287 16.7663 18.6116 16.8611 18.6116 16.9635C18.6116 17.0659 18.6286 17.1607 18.6629 17.248C18.697 17.3352 18.744 17.4107 18.8039 17.4749C18.8637 17.5389 18.935 17.5891 19.0178 17.6256C19.1005 17.6621 19.1903 17.6804 19.2874 17.6804C19.3847 17.6804 19.4744 17.6621 19.5571 17.6256C19.6191 17.5982 19.6749 17.5632 19.7244 17.5202L19.5924 17.2822C19.5548 17.3188 19.5104 17.3475 19.4592 17.3682C19.4063 17.3895 19.3491 17.4002 19.2874 17.4002C19.2315 17.4002 19.1794 17.3896 19.1313 17.3682C19.0831 17.3468 19.0415 17.317 19.0066 17.2786C18.9717 17.2403 18.9441 17.1943 18.924 17.1408C18.9039 17.0871 18.8939 17.0281 18.8939 16.9636C18.8939 16.8991 18.9039 16.8401 18.924 16.7866C18.9441 16.7329 18.9718 16.687 19.0067 16.6486L19.0066 16.6485ZM23.4333 17.137C23.415 17.1902 23.3891 17.2362 23.3558 17.275C23.3226 17.3139 23.2828 17.3444 23.2365 17.3666C23.1902 17.389 23.1385 17.4001 23.0817 17.4001C23.0222 17.4001 22.969 17.3885 22.9223 17.3653C22.8755 17.3421 22.8359 17.3108 22.8035 17.2714C22.7712 17.2321 22.7463 17.1859 22.7287 17.1328C22.7112 17.0796 22.7025 17.0234 22.7025 16.9636C22.7025 16.9039 22.7113 16.8475 22.7287 16.7943C22.7463 16.7413 22.7712 16.695 22.8035 16.6557C22.8359 16.6163 22.8755 16.585 22.9223 16.5618C22.969 16.5385 23.0223 16.5269 23.0817 16.5269C23.1385 16.5269 23.1902 16.5381 23.2365 16.5604C23.2829 16.5826 23.3227 16.6132 23.3558 16.6522C23.3891 16.6911 23.4149 16.7369 23.4333 16.7901C23.4517 16.8432 23.4608 16.9009 23.4608 16.9636C23.4608 17.0262 23.4516 17.0841 23.4333 17.1371V17.137ZM23.4438 15.7285V16.4473C23.4 16.3867 23.3458 16.338 23.2811 16.3016C23.2163 16.265 23.1389 16.2468 23.0488 16.2468C22.9604 16.2468 22.8782 16.2645 22.8021 16.3001C22.726 16.3357 22.6595 16.3852 22.6025 16.4486C22.5456 16.5121 22.5011 16.5877 22.4687 16.6755C22.4362 16.7631 22.4201 16.8591 22.4201 16.9635C22.4201 17.0678 22.4362 17.1638 22.4687 17.2514C22.5011 17.3392 22.5456 17.4148 22.6025 17.4784C22.6594 17.5418 22.7259 17.5914 22.8021 17.627C22.8782 17.6626 22.9604 17.6803 23.0488 17.6803C23.1388 17.6803 23.2163 17.6622 23.2811 17.6262C23.3457 17.5903 23.4 17.5418 23.4438 17.4813V17.6448H23.718V15.7285H23.4438ZM22.1628 16.2468C22.0857 16.2468 22.0163 16.2619 21.9541 16.2922C21.892 16.3226 21.84 16.3956 21.7981 16.461V16.2824H21.549V17.6448H21.8007V16.8952C21.8007 16.8374 21.8081 16.7857 21.8231 16.7403C21.838 16.6947 21.8585 16.6564 21.8847 16.6251C21.9109 16.5938 21.9425 16.57 21.9792 16.5539C22.016 16.5377 22.0562 16.5297 22.0999 16.5297C22.1332 16.5297 22.169 16.534 22.2075 16.5426C22.2272 16.5469 22.2454 16.5522 22.2626 16.5585L22.3437 16.2742C22.3216 16.2666 22.2994 16.2601 22.2765 16.2559C22.2427 16.2498 22.2049 16.2468 22.1629 16.2468H22.1628ZM18.3502 16.2468C18.2733 16.2468 18.2037 16.2619 18.1416 16.2922C18.0795 16.3226 18.0274 16.3956 17.9854 16.461V16.2824H17.7364V17.6448H17.9881V16.8952C17.9881 16.8374 17.9955 16.7857 18.0104 16.7403C18.0253 16.6947 18.0458 16.6564 18.0721 16.6251C18.0984 16.5938 18.1298 16.57 18.1667 16.5539C18.2033 16.5377 18.2436 16.5297 18.2873 16.5297C18.3207 16.5297 18.3565 16.534 18.395 16.5426C18.4146 16.5469 18.433 16.5522 18.4501 16.5585L18.5312 16.2742C18.5092 16.2666 18.4868 16.2601 18.4639 16.2559C18.4302 16.2498 18.3924 16.2468 18.3504 16.2468H18.3502ZM15.8741 17.3732C15.8299 17.3912 15.7864 17.4001 15.7436 17.4001C15.7155 17.4001 15.6895 17.3954 15.6654 17.3859C15.6413 17.3765 15.6204 17.3615 15.6024 17.3411C15.5844 17.3208 15.5703 17.2944 15.5597 17.2622C15.5491 17.23 15.5439 17.191 15.5439 17.1455V16.5524H15.9845V16.2823H15.5439V15.8698H15.2684V16.2823H15.0178V16.5524H15.2684V17.1512C15.2684 17.3324 15.3079 17.4657 15.3871 17.5516C15.4663 17.6374 15.5772 17.6803 15.7198 17.6803C15.7994 17.6803 15.8708 17.667 15.9343 17.6405C15.9762 17.6229 16.0151 17.6028 16.0515 17.5807L15.9578 17.3318C15.9312 17.3472 15.9034 17.361 15.874 17.373L15.8741 17.3732ZM20.8992 17.137C20.8809 17.1902 20.8551 17.2362 20.8218 17.275C20.7886 17.3139 20.7488 17.3444 20.7024 17.3666C20.6561 17.389 20.6045 17.4001 20.5476 17.4001C20.4881 17.4001 20.4349 17.3885 20.3881 17.3653C20.3413 17.3421 20.3017 17.3108 20.2694 17.2714C20.237 17.2321 20.2121 17.1859 20.1946 17.1328C20.1771 17.0796 20.1684 17.0234 20.1684 16.9636C20.1684 16.9039 20.1772 16.8475 20.1946 16.7943C20.2122 16.7413 20.2371 16.695 20.2694 16.6557C20.3017 16.6163 20.3413 16.585 20.3881 16.5618C20.4349 16.5385 20.4881 16.5269 20.5476 16.5269C20.6045 16.5269 20.6562 16.5381 20.7024 16.5604C20.7488 16.5826 20.7886 16.6132 20.8218 16.6522C20.8551 16.6911 20.8809 16.7369 20.8992 16.7901C20.9176 16.8432 20.9268 16.9009 20.9268 16.9636C20.9268 17.0262 20.9176 17.0841 20.8992 17.1371V17.137ZM20.9097 16.4473C20.8659 16.3867 20.8117 16.338 20.747 16.3016C20.6823 16.265 20.6048 16.2468 20.5147 16.2468C20.4264 16.2468 20.3441 16.2645 20.268 16.3001C20.1919 16.3357 20.1254 16.3852 20.0686 16.4486C20.0116 16.5121 19.967 16.5877 19.9346 16.6755C19.9022 16.7631 19.8861 16.8591 19.8861 16.9635C19.8861 17.0678 19.9022 17.1638 19.9346 17.2514C19.967 17.3392 20.0116 17.4148 20.0686 17.4784C20.1254 17.5418 20.1919 17.5914 20.268 17.627C20.3441 17.6626 20.4264 17.6803 20.5147 17.6803C20.6048 17.6803 20.6823 17.6622 20.747 17.6262C20.8117 17.5903 20.8659 17.5418 20.9097 17.4813V17.6448H21.1839V16.2824H20.9097V16.4473ZM16.4989 16.8469C16.5059 16.7977 16.5181 16.7523 16.5357 16.7112C16.5532 16.6699 16.5758 16.6345 16.6032 16.6045C16.6309 16.5747 16.6636 16.5517 16.7016 16.5355C16.7398 16.5194 16.7832 16.5113 16.8322 16.5113C16.9196 16.5113 16.991 16.5407 17.0461 16.5995C17.1013 16.6583 17.1362 16.7408 17.1511 16.8469H16.4989ZM17.2659 16.4452C17.2138 16.3822 17.1513 16.3333 17.0783 16.2987C17.0052 16.2641 16.925 16.2468 16.8376 16.2468C16.7448 16.2468 16.6601 16.264 16.5835 16.2987C16.5069 16.3333 16.4411 16.3821 16.3861 16.4452C16.3309 16.5082 16.2881 16.5838 16.2574 16.6721C16.2268 16.7603 16.2115 16.8574 16.2115 16.9636C16.2115 17.0717 16.2273 17.1697 16.2588 17.258C16.2903 17.3462 16.3343 17.4215 16.3913 17.484C16.4482 17.5466 16.516 17.595 16.5947 17.6291C16.6734 17.6632 16.7601 17.6804 16.8545 17.6804C16.9499 17.6804 17.0407 17.6661 17.1269 17.6377C17.2131 17.6093 17.2946 17.5594 17.3717 17.4883L17.2353 17.2764C17.1828 17.3219 17.1247 17.3572 17.0613 17.3823C16.9978 17.4075 16.9346 17.42 16.8717 17.42C16.827 17.42 16.7842 17.4135 16.7431 17.4001C16.7019 17.3869 16.6647 17.3663 16.6315 17.3383C16.5982 17.3104 16.5698 17.2745 16.5461 17.2309C16.5225 17.1873 16.5063 17.1347 16.4975 17.073H17.4267C17.4284 17.056 17.4297 17.038 17.4306 17.019C17.4315 17 17.432 16.981 17.432 16.962C17.432 16.8559 17.4173 16.7589 17.388 16.6712C17.3588 16.5835 17.3181 16.5081 17.266 16.445L17.2659 16.4452ZM14.6981 16.9615C14.6209 16.8966 14.5138 16.8532 14.3765 16.8315L14.2466 16.81C14.2176 16.8053 14.1905 16.7998 14.1652 16.7937C14.1399 16.7875 14.118 16.7792 14.0996 16.7688C14.0814 16.7584 14.0666 16.745 14.0557 16.729C14.0447 16.7128 14.0393 16.6929 14.0393 16.6692C14.0393 16.6208 14.0601 16.5816 14.1017 16.5518C14.1432 16.5219 14.2016 16.5071 14.2768 16.5071C14.3162 16.5071 14.3549 16.5108 14.393 16.5185C14.431 16.5261 14.467 16.5355 14.5012 16.5468C14.5353 16.5582 14.5664 16.5708 14.5944 16.5846C14.6224 16.5983 14.646 16.6115 14.6653 16.6236L14.7833 16.3919C14.7177 16.3464 14.6412 16.3111 14.5537 16.2859C14.4663 16.2608 14.3731 16.2482 14.2741 16.2482C14.1937 16.2482 14.1215 16.2585 14.0576 16.2788C13.9938 16.2992 13.9394 16.3281 13.8943 16.3655C13.8492 16.4031 13.8146 16.4487 13.7906 16.5028C13.7664 16.557 13.7546 16.6175 13.7546 16.6849C13.7546 16.7949 13.7906 16.8838 13.8627 16.9516C13.9349 17.0194 14.0411 17.0637 14.1809 17.0845L14.3122 17.1031C14.3875 17.1144 14.4425 17.1327 14.4776 17.1578C14.5126 17.1829 14.5301 17.2148 14.5301 17.2539C14.5301 17.3049 14.506 17.3455 14.4578 17.3754C14.4097 17.4052 14.3385 17.4201 14.2439 17.4201C14.1923 17.4201 14.1462 17.4164 14.1055 17.4087C14.0649 17.4011 14.0276 17.3911 13.994 17.3782C13.9603 17.3654 13.9301 17.3508 13.9034 17.3342C13.8767 17.3177 13.852 17.2999 13.8293 17.281L13.702 17.5042C13.7475 17.5411 13.7952 17.571 13.845 17.5938C13.895 17.6165 13.9439 17.6343 13.992 17.647C14.0402 17.6599 14.0856 17.6683 14.1285 17.6725C14.1713 17.6768 14.209 17.679 14.2413 17.679C14.3314 17.679 14.4121 17.6682 14.4834 17.6463C14.5548 17.6244 14.6147 17.5939 14.6633 17.5545C14.7119 17.5151 14.749 17.4682 14.7749 17.4137C14.8008 17.3592 14.8135 17.2993 14.8135 17.2339C14.8135 17.1172 14.7752 17.0265 14.6982 16.9615H14.6981ZM13.1525 17.1371C13.1342 17.1903 13.1084 17.2363 13.0751 17.2751C13.0419 17.314 13.0021 17.3445 12.9558 17.3667C12.9094 17.3891 12.8578 17.4002 12.801 17.4002C12.7415 17.4002 12.6882 17.3886 12.6415 17.3654C12.5947 17.3422 12.5551 17.3109 12.5228 17.2716C12.4904 17.2322 12.4655 17.186 12.448 17.1329C12.4305 17.0798 12.4218 17.0235 12.4218 16.9637C12.4218 16.904 12.4306 16.8476 12.448 16.7944C12.4656 16.7414 12.4905 16.6952 12.5228 16.6558C12.5551 16.6164 12.5948 16.5852 12.6415 16.5619C12.6883 16.5386 12.7415 16.527 12.801 16.527C12.8578 16.527 12.9094 16.5382 12.9558 16.5605C13.0021 16.5827 13.0419 16.6133 13.0751 16.6523C13.1084 16.6912 13.1342 16.7371 13.1525 16.7902C13.1709 16.8433 13.1801 16.901 13.1801 16.9637C13.1801 17.0264 13.1709 17.0842 13.1525 17.1372V17.1371ZM13.1631 16.4474C13.1193 16.3868 13.065 16.3381 13.0003 16.3017C12.9355 16.2651 12.8581 16.2469 12.768 16.2469C12.6797 16.2469 12.5975 16.2646 12.5213 16.3002C12.4452 16.3358 12.3787 16.3853 12.3219 16.4487C12.2649 16.5122 12.2204 16.5878 12.1879 16.6756C12.1556 16.7633 12.1394 16.8592 12.1394 16.9636C12.1394 17.0679 12.1556 17.1639 12.1879 17.2515C12.2204 17.3393 12.2649 17.4149 12.3219 17.4785C12.3787 17.542 12.4452 17.5915 12.5213 17.6271C12.5975 17.6627 12.6797 17.6804 12.768 17.6804C12.8581 17.6804 12.9356 17.6623 13.0003 17.6263C13.065 17.5904 13.1193 17.542 13.1631 17.4814V17.6449H13.4373V16.2825H13.1631V16.4474Z" fill="#141515"/>
<path fill-rule="evenodd" clip-rule="evenodd" d="M14.9987 9.91234C14.9987 8.27997 15.7023 6.82681 16.7978 5.88615C15.99 5.19257 14.9696 4.77734 13.859 4.77734C11.2424 4.77734 9.12109 7.07643 9.12109 9.91223C9.12109 12.7481 11.2423 15.0471 13.859 15.0471C14.9696 15.0471 15.99 14.632 16.7978 13.9384C15.7023 12.9979 14.9987 11.5446 14.9987 9.91223V9.91234Z" fill="#DE2C1D"/>
<path fill-rule="evenodd" clip-rule="evenodd" d="M15 9.91291C15 11.5454 15.7036 12.9985 16.7991 13.9391C17.8946 12.9985 18.5981 11.5453 18.5981 9.91291C18.5981 8.28054 17.8945 6.82738 16.7991 5.88672C15.7036 6.82727 15 8.28054 15 9.91291Z" fill="#ED6100"/>
<path fill-rule="evenodd" clip-rule="evenodd" d="M19.7395 4.77734C18.6289 4.77734 17.6085 5.19257 16.8008 5.88615C17.8963 6.8267 18.5998 8.27997 18.5998 9.91234C18.5998 11.5448 17.8962 12.998 16.8008 13.9385C17.6085 14.6321 18.6289 15.0472 19.7395 15.0472C22.3561 15.0472 24.4773 12.7483 24.4773 9.91234C24.4773 7.07643 22.3561 4.77734 19.7395 4.77734ZM24.8103 12.8762V12.6582L24.7451 12.8463H24.673L24.6078 12.6586V12.8762H24.5398V12.5619H24.6371L24.7093 12.7631L24.7807 12.5619H24.8782V12.8762H24.8103ZM24.3233 12.8762V12.6296H24.2312V12.5619H24.4831V12.6296H24.3911V12.8762H24.3233Z" fill="#F79F06"/>
<path d="M3.19923 0.25H30.8005C31.6808 0.25 32.4808 0.640016 33.0604 1.26816C33.64 1.8964 33.9999 2.76344 33.9999 3.71748V18.7825C33.9999 19.7365 33.6399 20.6035 33.0604 21.2317C32.4807 21.8599 31.6807 22.25 30.8006 22.25H3.19934C2.31918 22.25 1.51909 21.86 0.939421 21.2317C0.359856 20.6036 0 19.7367 0 18.7825V3.71748C0 2.76333 0.359856 1.89629 0.939421 1.26816C1.51899 0.640016 2.31907 0.25 3.19944 0.25H3.19923ZM30.8005 1.44514H3.19923C2.62324 1.44514 2.09916 1.70106 1.71891 2.11319C1.33865 2.52532 1.10252 3.09332 1.10252 3.71759V18.7826C1.10252 19.4068 1.33865 19.9748 1.71891 20.3869C2.09926 20.7992 2.62334 21.0551 3.19923 21.0551H30.8005C31.3763 21.0551 31.9003 20.7992 32.2807 20.3869C32.6609 19.9747 32.8972 19.4067 32.8972 18.7827V3.7177C32.8972 3.09365 32.661 2.52554 32.2808 2.1133C31.9005 1.70118 31.3764 1.44525 30.8005 1.44525V1.44514Z" fill="#808080"/>
</g>
<defs>
<clipPath id="clip0_1808_27193">
<rect width="34" height="22" fill="white" transform="translate(0 0.25)"/>
</clipPath>
</defs>
</svg>
