<svg width="24" height="24" viewBox="0 0 24 24" fill="none" xmlns="http://www.w3.org/2000/svg">
<g clip-path="url(#clip0_470_21294)">
<path d="M15.2829 2.76986C15.2829 2.34505 15.7028 2 16.222 2C16.7412 2 17.1611 2.34505 17.1611 2.76986V6.14225C17.1611 6.56706 16.7412 6.91211 16.222 6.91211C15.7028 6.91211 15.2829 6.56706 15.2829 6.14225V2.76986ZM6.81934 2.76986C6.81934 2.34505 7.23926 2 7.75846 2C8.27767 2 8.69759 2.34505 8.69759 2.76986V6.14225C8.69759 6.56706 8.27767 6.91211 7.75846 6.91211C7.23926 6.91211 6.81934 6.56706 6.81934 6.14225V2.76986ZM3.04167 9.3763H20.9583V5.49447C20.9583 5.36426 20.9046 5.24544 20.8184 5.15755C20.7321 5.07129 20.6133 5.01758 20.4814 5.01758H18.7643C18.4762 5.01758 18.2435 4.78483 18.2435 4.49674C18.2435 4.20866 18.4762 3.97591 18.7643 3.97591H20.4814C20.8997 3.97591 21.279 4.14681 21.554 4.42188C21.8291 4.69694 22 5.07617 22 5.49447V9.89876V20.4831C22 20.9014 21.8291 21.2806 21.554 21.5557C21.279 21.8307 20.8997 22.0016 20.4814 22.0016H3.51855C3.10026 22.0016 2.72103 21.8307 2.44596 21.5557C2.1709 21.279 2 20.8997 2 20.4814V9.89876V5.49447C2 5.07617 2.1709 4.69694 2.44596 4.42188C2.72103 4.14681 3.10026 3.97591 3.51855 3.97591H5.35286C5.64095 3.97591 5.8737 4.20866 5.8737 4.49674C5.8737 4.78483 5.64095 5.01758 5.35286 5.01758H3.51855C3.38835 5.01758 3.26953 5.07129 3.18164 5.15755C3.09538 5.24382 3.04167 5.36263 3.04167 5.49447V9.3763ZM20.9583 10.4196H3.04167V20.4814C3.04167 20.6117 3.09538 20.7305 3.18164 20.8184C3.2679 20.9046 3.38672 20.9583 3.51855 20.9583H20.4814C20.6117 20.9583 20.7305 20.9046 20.8184 20.8184C20.9046 20.7321 20.9583 20.6133 20.9583 20.4814V10.4196ZM10.208 5.01758C9.91992 5.01758 9.68717 4.78483 9.68717 4.49674C9.68717 4.20866 9.91992 3.97591 10.208 3.97591H13.7057C13.9938 3.97591 14.2266 4.20866 14.2266 4.49674C14.2266 4.78483 13.9938 5.01758 13.7057 5.01758H10.208Z" fill="#666666"/>
</g>
<defs>
<clipPath id="clip0_470_21294">
<rect width="20" height="20" fill="white" transform="translate(2 2)"/>
</clipPath>
</defs>
</svg>
