<svg width="24" height="24" viewBox="0 0 24 24" fill="none" xmlns="http://www.w3.org/2000/svg">
<g clip-path="url(#clip0_470_19690)">
<path d="M0 24H24V0H0V24Z" fill="#FFCB05"/>
<path d="M23.2402 11.9326C23.2402 14.4932 18.2051 16.5713 11.9941 16.5713C5.7832 16.5713 0.75 14.4932 0.75 11.9326C0.75 9.37207 5.78711 7.29395 12 7.29395C18.2129 7.29395 23.2402 9.37598 23.2402 11.9326Z" fill="#00678F"/>
<path d="M4.79297 14.2217L5.95508 9.58301H7.81445V12.2842L9.03516 9.58301H10.9551L9.79297 14.2217H8.57031L9.26758 11.2275L7.81445 14.2217H6.82813V11.2275L6.07031 14.2217H4.79297Z" fill="white"/>
<path d="M11.332 14.2793L11.5059 13.6328H12.8438L12.668 14.2793H11.332Z" fill="#ED1D24"/>
<path d="M14.3242 14.2217L15.4863 9.58301H16.8242L17.4063 12.0498L18.0449 9.58301H19.2656L18.1035 14.2217H16.8242L16.1855 11.6963L15.5449 14.2217H14.3242Z" fill="white"/>
<path d="M11.3301 9.58301L11.0391 10.7588H12.2617L11.6035 13.3057H12.9395L13.5996 10.7588H14.8184L15.1094 9.58301H11.3301Z" fill="#FFCB05"/>
</g>
<defs>
<clipPath id="clip0_470_19690">
<rect width="24" height="24" rx="12" fill="white"/>
</clipPath>
</defs>
</svg>
