<svg width="21" height="23" viewBox="0 0 21 23" fill="none" xmlns="http://www.w3.org/2000/svg">
<path d="M7.12402 17.125H3.30397C1.88825 17.125 1.18038 17.125 1.03145 17.0151C0.864116 16.8916 0.823234 16.8187 0.805121 16.6116C0.788989 16.4272 1.22284 15.7172 2.09056 14.2974C2.98645 12.8314 3.74717 10.697 3.74717 7.675C3.74717 6.00414 4.45832 4.40171 5.7242 3.22023C6.99007 2.03875 8.70701 1.375 10.4972 1.375C12.2874 1.375 14.0043 2.03875 15.2701 3.22023C16.536 4.40171 17.2472 6.00414 17.2472 7.675C17.2472 10.697 18.0078 12.8314 18.9038 14.2974C19.7715 15.7172 20.2053 16.4272 20.1892 16.6116C20.1711 16.8187 20.1303 16.8916 19.9629 17.0151C19.8139 17.125 19.1061 17.125 17.6904 17.125H13.8722M7.12402 17.125L7.12217 18.25C7.12217 20.114 8.63321 21.625 10.4972 21.625C12.3611 21.625 13.8722 20.114 13.8722 18.25V17.125M7.12402 17.125H13.8722" stroke="#636559" stroke-width="1.3" stroke-linecap="round" stroke-linejoin="round"/>
</svg>
