<svg width="90" height="100" viewBox="0 0 90 100" fill="none" xmlns="http://www.w3.org/2000/svg">
<g filter="url(#filter0_d_2001_7454)">
<path d="M35.7251 29.2917L31.9918 23.1084C30.5918 20.8334 27.821 19.55 25.2251 20.3084C21.3168 21.475 19.8001 25.8792 21.7543 29.1167L25.6043 35.4459C26.0418 36.1167 26.946 36.35 27.6168 35.9417L35.2293 31.3042C35.9293 30.8667 36.1626 29.9625 35.7251 29.2917Z" fill="white"/>
</g>
<g filter="url(#filter1_d_2001_7454)">
<path d="M67.5753 56.4454L59.3794 45.362C56.5211 41.512 51.5628 39.7037 46.8961 40.9579C46.8961 40.9287 46.8669 40.9287 46.8669 40.8995L42.0253 32.937C41.1503 31.5662 39.3419 31.1287 37.9711 31.9745L27.8503 38.1287C26.4503 38.9454 26.0128 40.7829 26.8586 42.1829L31.6711 50.1454C31.6711 50.1454 31.6711 50.1745 31.7003 50.1745C28.4628 53.762 27.7628 58.9829 29.9211 63.3287L35.9878 75.6954C37.8544 79.5162 42.2586 80.9745 45.9919 79.0495C46.2836 78.9037 46.3711 78.5537 46.1961 78.262L41.6461 70.737C41.0044 69.687 41.3253 68.3454 42.3753 67.6745C43.4253 67.062 44.7669 67.3829 45.4378 68.4037L50.0169 75.9287C50.1919 76.1912 50.5419 76.2787 50.8044 76.1329L53.6044 74.4412C53.8669 74.2662 53.9544 73.9162 53.8086 73.6537L49.2294 66.1287C48.6169 65.0787 48.9378 63.737 49.9586 63.0662C51.0378 62.4537 52.3794 62.7745 53.0211 63.7954L57.6003 71.3204C57.7753 71.5829 58.1253 71.6704 58.3878 71.5245L61.1878 69.8329C61.4503 69.6579 61.5378 69.3079 61.3919 69.0454L56.8128 61.5204C56.2003 60.4704 56.5211 59.1287 57.5419 58.4579C58.6211 57.8454 59.9628 58.1662 60.6044 59.187L65.2128 66.6829C65.3878 66.9454 65.7378 67.0329 66.0003 66.8579C69.3836 64.437 70.1419 59.887 67.5753 56.4454Z" fill="white"/>
</g>
<defs>
<filter id="filter0_d_2001_7454" x="0.90332" y="0.0898438" width="55.0435" height="56.0537" filterUnits="userSpaceOnUse" color-interpolation-filters="sRGB">
<feFlood flood-opacity="0" result="BackgroundImageFix"/>
<feColorMatrix in="SourceAlpha" type="matrix" values="0 0 0 0 0 0 0 0 0 0 0 0 0 0 0 0 0 0 127 0" result="hardAlpha"/>
<feOffset/>
<feGaussianBlur stdDeviation="10"/>
<feComposite in2="hardAlpha" operator="out"/>
<feColorMatrix type="matrix" values="0 0 0 0 1 0 0 0 0 1 0 0 0 0 1 0 0 0 0.46 0"/>
<feBlend mode="normal" in2="BackgroundImageFix" result="effect1_dropShadow_2001_7454"/>
<feBlend mode="normal" in="SourceGraphic" in2="effect1_dropShadow_2001_7454" result="shape"/>
</filter>
<filter id="filter1_d_2001_7454" x="6.42822" y="11.543" width="82.676" height="88.353" filterUnits="userSpaceOnUse" color-interpolation-filters="sRGB">
<feFlood flood-opacity="0" result="BackgroundImageFix"/>
<feColorMatrix in="SourceAlpha" type="matrix" values="0 0 0 0 0 0 0 0 0 0 0 0 0 0 0 0 0 0 127 0" result="hardAlpha"/>
<feOffset/>
<feGaussianBlur stdDeviation="10"/>
<feComposite in2="hardAlpha" operator="out"/>
<feColorMatrix type="matrix" values="0 0 0 0 1 0 0 0 0 1 0 0 0 0 1 0 0 0 0.46 0"/>
<feBlend mode="normal" in2="BackgroundImageFix" result="effect1_dropShadow_2001_7454"/>
<feBlend mode="normal" in="SourceGraphic" in2="effect1_dropShadow_2001_7454" result="shape"/>
</filter>
</defs>
</svg>
