<svg width="97" height="97" viewBox="0 0 97 97" fill="none" xmlns="http://www.w3.org/2000/svg">
<rect width="97" height="97" rx="20" fill="#F1E8FF"/>
<path d="M56.8281 28.6406H40.1719C39.4925 28.6415 38.8413 28.9118 38.3609 29.3921C37.8805 29.8725 37.6103 30.5238 37.6094 31.2031V65.7969C37.6103 66.4762 37.8805 67.1275 38.3609 67.6079C38.8413 68.0882 39.4925 68.3585 40.1719 68.3594H56.8281C57.5075 68.3585 58.1587 68.0882 58.6391 67.6079C59.1195 67.1275 59.3897 66.4762 59.3906 65.7969V31.2031C59.3897 30.5238 59.1195 29.8725 58.6391 29.3921C58.1587 28.9118 57.5075 28.6415 56.8281 28.6406ZM51.4981 29.9219L51.1378 31.2031H45.7974L45.4771 29.9219H51.4981ZM58.1094 65.7969C58.1089 66.1365 57.9738 66.4622 57.7336 66.7024C57.4934 66.9426 57.1678 67.0777 56.8281 67.0781H40.1719C39.8322 67.0777 39.5066 66.9426 39.2664 66.7024C39.0262 66.4622 38.8911 66.1365 38.8906 65.7969V31.2031C38.8911 30.8635 39.0262 30.5378 39.2664 30.2976C39.5066 30.0575 39.8322 29.9223 40.1719 29.9219H44.1558L44.6755 31.9991C44.7101 32.1377 44.7901 32.2607 44.9027 32.3487C45.0153 32.4366 45.154 32.4844 45.2969 32.4844H51.623C51.7627 32.4844 51.8984 32.4388 52.0097 32.3545C52.1211 32.2702 52.2018 32.1519 52.2396 32.0175L52.829 29.9219H56.8281C57.1678 29.9223 57.4934 30.0575 57.7336 30.2976C57.9738 30.5378 58.1089 30.8635 58.1094 31.2031V65.7969Z" fill="#6E00FA"/>
<path d="M45.2969 64.5156H40.8125C40.6426 64.5156 40.4796 64.5831 40.3595 64.7033C40.2394 64.8234 40.1719 64.9863 40.1719 65.1562C40.1719 65.3262 40.2394 65.4891 40.3595 65.6092C40.4796 65.7294 40.6426 65.7969 40.8125 65.7969H45.2969C45.4668 65.7969 45.6297 65.7294 45.7499 65.6092C45.87 65.4891 45.9375 65.3262 45.9375 65.1562C45.9375 64.9863 45.87 64.8234 45.7499 64.7033C45.6297 64.5831 45.4668 64.5156 45.2969 64.5156Z" fill="#6E00FA"/>
<path d="M47.8594 64.5156H47.2188C47.0488 64.5156 46.8859 64.5831 46.7658 64.7033C46.6456 64.8234 46.5781 64.9863 46.5781 65.1562C46.5781 65.3262 46.6456 65.4891 46.7658 65.6092C46.8859 65.7294 47.0488 65.7969 47.2188 65.7969H47.8594C48.0293 65.7969 48.1922 65.7294 48.3124 65.6092C48.4325 65.4891 48.5 65.3262 48.5 65.1562C48.5 64.9863 48.4325 64.8234 48.3124 64.7033C48.1922 64.5831 48.0293 64.5156 47.8594 64.5156Z" fill="#6E00FA"/>
<path d="M50.7515 44.7475C50.6794 44.7043 50.5994 44.6756 50.5162 44.6632C50.433 44.6508 50.3481 44.655 50.2665 44.6754C50.1849 44.6958 50.1081 44.7321 50.0405 44.7821C49.9729 44.8322 49.9158 44.8951 49.8726 44.9673L46.0288 51.3735C45.9414 51.5192 45.9154 51.6937 45.9566 51.8585C45.9978 52.0234 46.1028 52.1651 46.2485 52.2525C46.3942 52.3399 46.5687 52.3659 46.7335 52.3246C46.8983 52.2834 47.0401 52.1784 47.1275 52.0327L50.9712 45.6265C51.0145 45.5543 51.0432 45.4744 51.0555 45.3912C51.0679 45.308 51.0638 45.2231 51.0434 45.1415C51.023 45.0599 50.9867 44.9831 50.9366 44.9155C50.8865 44.8479 50.8236 44.7908 50.7515 44.7475Z" fill="#6E00FA"/>
<path d="M52.8441 44.8966C52.7915 44.8309 52.7265 44.7762 52.6528 44.7357C52.5791 44.6951 52.4981 44.6694 52.4145 44.6602C52.2456 44.6414 52.0762 44.6906 51.9435 44.7968C51.8108 44.9029 51.7258 45.0575 51.707 45.2264C51.6883 45.3953 51.7374 45.5647 51.8436 45.6974L54.0858 48.5001L51.8436 51.3029C51.7374 51.4355 51.6883 51.605 51.707 51.7739C51.7258 51.9428 51.8108 52.0973 51.9435 52.2035C52.0762 52.3097 52.2456 52.3588 52.4145 52.3401C52.5834 52.3214 52.7379 52.2363 52.8441 52.1036L55.4066 48.9005C55.4976 48.7869 55.5472 48.6457 55.5472 48.5001C55.5472 48.3546 55.4976 48.2134 55.4066 48.0997L52.8441 44.8966Z" fill="#6E00FA"/>
<path d="M44.1559 52.1037C44.2621 52.2363 44.4167 52.3214 44.5856 52.3401C44.7545 52.3588 44.9239 52.3097 45.0566 52.2035C45.1892 52.0973 45.2743 51.9428 45.293 51.7739C45.3117 51.605 45.2626 51.4355 45.1564 51.3029L42.9142 48.5001L45.1564 45.6974C45.209 45.6317 45.2481 45.5563 45.2716 45.4755C45.295 45.3947 45.3023 45.31 45.293 45.2264C45.2837 45.1428 45.2581 45.0618 45.2175 44.9881C45.1769 44.9143 45.1222 44.8493 45.0566 44.7968C44.9909 44.7442 44.9155 44.705 44.8346 44.6816C44.7538 44.6582 44.6692 44.6509 44.5856 44.6602C44.5019 44.6694 44.4209 44.6951 44.3472 44.7357C44.2735 44.7762 44.2085 44.8309 44.1559 44.8966L41.5934 48.0997C41.5024 48.2134 41.4529 48.3546 41.4529 48.5001C41.4529 48.6457 41.5024 48.7869 41.5934 48.9005L44.1559 52.1037Z" fill="#6E00FA"/>
</svg>
