<svg width="95" height="95" viewBox="0 0 95 95" fill="none" xmlns="http://www.w3.org/2000/svg">
<rect x="0.5" y="0.5" width="94" height="94" rx="20" fill="#F6EEE7"/>
<g clip-path="url(#clip0_401_14977)">
<path d="M66.4827 55.4173C66.4773 55.39 66.4702 55.3638 66.4613 55.3371C66.4524 55.3128 66.4447 55.2902 66.4334 55.2671C66.4221 55.2457 66.4091 55.2261 66.396 55.2053C66.3865 55.1917 66.3847 55.1756 66.3746 55.1626C66.3669 55.1525 66.3556 55.1489 66.3479 55.1394C66.3301 55.1192 66.3117 55.102 66.2915 55.0842C66.2832 55.0765 66.279 55.067 66.2707 55.0598L61.6822 51.4908C61.7232 51.0502 61.7499 50.6055 61.7499 50.1638C61.7499 44.5742 58.4979 39.541 53.4398 37.2176V33.5364C53.4398 33.5239 53.4332 33.5138 53.4326 33.5014C53.4309 33.4752 53.4273 33.4509 53.4226 33.4254C53.4172 33.3981 53.4101 33.3725 53.4012 33.3458C53.3929 33.3215 53.3851 33.2989 53.3733 33.2763C53.3626 33.2544 53.3489 33.2348 53.3359 33.2146C53.3264 33.2009 53.3246 33.1849 53.3145 33.1718C53.3068 33.1617 53.2955 33.1582 53.2872 33.1487C53.27 33.1285 53.2516 33.1113 53.2314 33.0935C53.2231 33.0857 53.2189 33.0762 53.2106 33.0691L47.8645 28.9117C47.852 28.9022 47.8371 28.8998 47.8247 28.8921C47.7902 28.8689 47.7546 28.8529 47.7166 28.8375C47.681 28.8238 47.6483 28.8101 47.6115 28.803C47.5747 28.7965 47.5379 28.7959 47.4999 28.7959C47.4625 28.7959 47.4257 28.7965 47.3883 28.8036C47.3515 28.8107 47.3188 28.8244 47.2832 28.8386C47.2458 28.8535 47.2101 28.8695 47.1757 28.8921C47.1626 28.901 47.1472 28.9028 47.1353 28.9123L41.7892 33.0697C41.7791 33.0774 41.7756 33.0887 41.7661 33.097C41.7476 33.1131 41.7304 33.1297 41.7144 33.1475C41.7055 33.1576 41.6936 33.1617 41.6853 33.1724C41.6746 33.1855 41.6728 33.2015 41.6639 33.2152C41.6503 33.2366 41.636 33.2567 41.6253 33.2793C41.6146 33.3007 41.6075 33.3221 41.5992 33.3452C41.5897 33.3719 41.5826 33.3981 41.5772 33.426C41.5725 33.4515 41.5689 33.4764 41.5671 33.5026C41.5666 33.515 41.56 33.5251 41.56 33.5382V37.2182C36.5019 39.5404 33.2499 44.5736 33.2499 50.1638C33.2499 50.6079 33.2766 51.052 33.317 51.4908L28.7297 55.0587C28.7196 55.0664 28.716 55.0777 28.7065 55.086C28.6881 55.102 28.6709 55.1186 28.6543 55.137C28.646 55.1465 28.6341 55.1507 28.6258 55.1614C28.6157 55.1744 28.6133 55.1905 28.6044 55.2035C28.5907 55.2255 28.5765 55.2451 28.5658 55.2682C28.5551 55.2902 28.548 55.3116 28.5397 55.3347C28.5302 55.3615 28.5236 55.3864 28.5183 55.4137C28.513 55.4398 28.5094 55.4648 28.5076 55.4915C28.507 55.504 28.5005 55.5141 28.5005 55.5271V61.4622C28.5005 61.4747 28.507 61.4854 28.5076 61.4979C28.5106 61.5394 28.5207 61.578 28.532 61.6184C28.5421 61.654 28.5498 61.6885 28.5658 61.7211C28.5818 61.7538 28.6038 61.7811 28.6264 61.8102C28.6513 61.844 28.6756 61.8761 28.7071 61.9034C28.7166 61.9117 28.7202 61.923 28.7303 61.9307L34.0764 66.0882C34.0996 66.1066 34.1269 66.1149 34.1524 66.1285C34.1678 66.138 34.1809 66.1505 34.1969 66.1576C34.2076 66.163 34.2183 66.1665 34.2296 66.1701C34.2985 66.1968 34.3691 66.2128 34.4404 66.2128H34.441C34.441 66.2128 34.441 66.2128 34.4416 66.2128C34.5128 66.2128 34.5835 66.1968 34.6523 66.1701C34.6636 66.1659 34.6743 66.1624 34.685 66.1576C34.701 66.1505 34.7141 66.138 34.7295 66.1285C34.7551 66.1149 34.7824 66.1066 34.8055 66.0882L39.8429 62.1706C42.1318 63.6336 44.7657 64.4132 47.4999 64.4132C50.2335 64.4132 52.8686 63.6336 55.1569 62.17L60.1949 66.0882C60.218 66.1066 60.2453 66.1149 60.2709 66.1285C60.2863 66.138 60.2994 66.1505 60.3154 66.1576C60.3261 66.163 60.3368 66.1665 60.3481 66.1701C60.4169 66.1968 60.4876 66.2128 60.5588 66.2128H60.5594C60.5594 66.2128 60.5594 66.2128 60.56 66.2128C60.6313 66.2128 60.7019 66.1968 60.7708 66.1701C60.7821 66.1659 60.7928 66.1624 60.8035 66.1576C60.8195 66.1505 60.8326 66.138 60.848 66.1285C60.8735 66.1149 60.9008 66.1066 60.924 66.0882L66.2701 61.9307C66.2802 61.923 66.2838 61.9117 66.2933 61.9034C66.3247 61.8761 66.3491 61.8434 66.374 61.8102C66.396 61.7805 66.4186 61.7532 66.4346 61.7211C66.4506 61.6891 66.4583 61.654 66.4684 61.6184C66.4797 61.578 66.4898 61.5394 66.4928 61.4979C66.4934 61.4854 66.4999 61.4753 66.4999 61.4622V55.5277C66.4999 55.5152 66.4934 55.5046 66.4928 55.4915C66.4904 55.466 66.4874 55.4422 66.4827 55.4173ZM60.5594 52.122L64.9377 55.5277L60.5594 58.9323L56.1811 55.5265L60.5594 52.122ZM55.8071 56.7407L59.9657 59.9755V64.4067L55.8071 61.1725V56.7407ZM61.1532 59.9755L65.3118 56.7413V61.1725L61.1532 64.4067V59.9755ZM47.4999 30.1324L51.8782 33.537L47.4999 36.9421L43.1216 33.5376L47.4999 30.1324ZM42.7475 37.5935C42.7475 37.5929 42.7475 37.5917 42.7475 37.5911V34.75L46.9061 37.9848V42.4165L42.7475 39.1818V37.5935ZM48.0936 37.9848L52.2523 34.7506V37.5775V37.6077V39.183L48.0936 42.4165V37.9848ZM38.8187 55.5283L34.4404 58.9329L30.0621 55.5271L34.4404 52.1226L38.8187 55.5283ZM29.688 56.7407L33.8466 59.9755V64.4067L29.688 61.1725V56.7407ZM35.0341 59.9755L39.1927 56.7413V61.1725L35.0341 64.4067V59.9755ZM40.3802 61.1072V55.5277C40.3802 55.5152 40.3737 55.5046 40.3731 55.4915C40.3713 55.466 40.3678 55.4422 40.363 55.4173C40.3577 55.39 40.3506 55.3638 40.3416 55.3371C40.3327 55.3128 40.325 55.2902 40.3137 55.2671C40.3025 55.2457 40.2894 55.2261 40.2763 55.2053C40.2668 55.1917 40.2651 55.1756 40.255 55.1626C40.2472 55.1525 40.236 55.1489 40.2276 55.1394C40.2104 55.1192 40.192 55.102 40.1718 55.0842C40.1635 55.0765 40.1594 55.067 40.1511 55.0598L34.8049 50.9012C34.7925 50.8911 34.777 50.8893 34.7646 50.881C34.7307 50.8585 34.6963 50.8436 34.6589 50.8282C34.6226 50.8139 34.5888 50.8003 34.5514 50.7926C34.5193 50.7866 34.4885 50.7848 34.4552 50.7842C34.4457 50.5782 34.4374 50.371 34.4374 50.1638C34.4374 45.2232 37.2055 40.7511 41.56 38.5286V39.4715C41.56 39.484 41.5666 39.4947 41.5677 39.5077C41.5701 39.5487 41.5802 39.5867 41.5915 39.6265C41.6016 39.6627 41.6093 39.6977 41.6259 39.7304C41.6414 39.7631 41.6633 39.7904 41.6859 39.8195C41.7108 39.8533 41.7352 39.8854 41.7666 39.9127C41.7761 39.921 41.7797 39.9323 41.7898 39.94L47.1359 44.0986C47.1597 44.117 47.1864 44.1253 47.2119 44.139C47.2274 44.1485 47.2404 44.161 47.2565 44.1681C47.2671 44.1734 47.2778 44.177 47.2891 44.1806C47.358 44.2073 47.4286 44.2233 47.4999 44.2233H47.5005H47.5011C47.5723 44.2233 47.643 44.2073 47.7119 44.1806C47.7231 44.1764 47.7338 44.1728 47.7445 44.1681C47.7606 44.161 47.7736 44.1485 47.7891 44.139C47.8146 44.1253 47.8413 44.117 47.8651 44.0986L53.2112 39.9412C53.2213 39.9335 53.2248 39.9222 53.2343 39.9139C53.2658 39.8866 53.2901 39.8539 53.3151 39.8207C53.3371 39.791 53.359 39.7636 53.3756 39.7316C53.3911 39.6989 53.3994 39.6645 53.4095 39.6289C53.4208 39.5885 53.4309 39.5499 53.4338 39.5083C53.4344 39.4959 53.441 39.4858 53.441 39.4727V38.5286C57.7949 40.7522 60.5624 45.2232 60.5624 50.1638C60.5624 50.3704 60.5541 50.5776 60.5446 50.7848C60.5113 50.7854 60.4811 50.7872 60.449 50.7931C60.4116 50.8009 60.3771 50.8139 60.3409 50.8288C60.3041 50.8436 60.2697 50.8591 60.2364 50.881C60.2234 50.8899 60.2073 50.8923 60.1949 50.9018L54.8487 55.0592C54.8386 55.067 54.8351 55.0782 54.8256 55.0866C54.8072 55.1026 54.79 55.1192 54.7733 55.1376C54.765 55.1471 54.7531 55.1513 54.7448 55.162C54.7347 55.175 54.7324 55.1911 54.7235 55.2041C54.7098 55.2261 54.6956 55.2457 54.6849 55.2688C54.6742 55.2908 54.6671 55.3122 54.6587 55.3353C54.6492 55.3621 54.6427 55.387 54.6374 55.4143C54.632 55.4404 54.6285 55.4654 54.6267 55.4921C54.6261 55.5046 54.6196 55.5147 54.6196 55.5277V61.1066C52.4999 62.49 50.0465 63.2263 47.4999 63.2263C44.9533 63.2263 42.5011 62.49 40.3802 61.1072Z" fill="#924705"/>
</g>
<defs>
<clipPath id="clip0_401_14977">
<rect width="38" height="38" fill="white" transform="translate(28.5 28.5)"/>
</clipPath>
</defs>
</svg>
