<svg width="98" height="97" viewBox="0 0 98 97" fill="none" xmlns="http://www.w3.org/2000/svg">
<rect x="0.5" width="97" height="97" rx="20" fill="#FFE7FB"/>
<g clip-path="url(#clip0_401_14919)">
<path d="M64.7667 40.3102C64.7632 37.1453 62.1982 34.5803 59.0334 34.5768H56.8512C56.4803 30.5176 53.0765 27.4102 49.0001 27.4102C44.9237 27.4102 41.5199 30.5176 41.1489 34.5768H38.9667C35.8002 34.5768 33.2334 37.1436 33.2334 40.3102C33.2334 43.4767 35.8002 46.0435 38.9667 46.0435H46.8501V44.6102H38.9667C36.5921 44.6102 34.6667 42.6848 34.6667 40.3102C34.6667 37.9355 36.5921 36.0102 38.9667 36.0102H42.5501V35.2935C42.5501 31.7312 45.4377 28.8435 49.0001 28.8435C52.5624 28.8435 55.4501 31.7312 55.4501 35.2935V36.0102H59.0334C61.4081 36.0102 63.3334 37.9355 63.3334 40.3102C63.3334 42.6848 61.4081 44.6102 59.0334 44.6102H51.1501V46.0435H59.0334C62.1982 46.04 64.7632 43.475 64.7667 40.3102Z" fill="#910078"/>
<path d="M61.9001 68.2605V56.0772C61.8987 54.8902 60.937 53.9286 59.7501 53.9272H58.3167V52.3619C59.2598 52.0302 59.8488 51.091 59.7364 50.0975C59.6241 49.104 58.8399 48.3198 57.8464 48.2075C56.853 48.0952 55.9137 48.6841 55.582 49.6272H49.7167V40.6073L51.36 42.2506L52.3734 41.2371L49.0001 37.8638L45.6267 41.2371L46.6401 42.2506L48.2834 40.6073V49.6272H42.4181C42.0864 48.6841 41.1472 48.0948 40.1537 48.2075C39.1602 48.3198 38.376 49.1037 38.2637 50.0971C38.1514 51.0906 38.7403 52.0302 39.6834 52.3616V54.6439H35.3834C34.1964 54.6453 33.2348 55.6069 33.2334 56.7938V65.3939C33.2348 66.5808 34.1964 67.5425 35.3834 67.5439H39.6834V68.9772H37.5334V70.4105H43.2667V68.9772H41.1167V67.5439H45.4167C46.6037 67.5425 47.5653 66.5808 47.5667 65.3939V56.7938C47.5653 55.6069 46.6037 54.6453 45.4167 54.6439H41.1167V52.3619C41.7239 52.1453 42.2015 51.6677 42.4181 51.0605H55.582C55.7986 51.6677 56.2763 52.1453 56.8834 52.3616V53.9272H52.5834C51.3964 53.9286 50.4348 54.8902 50.4334 56.0772V68.2605C50.4348 69.4475 51.3964 70.4091 52.5834 70.4105H59.7501C60.937 70.4091 61.8987 69.4475 61.9001 68.2605ZM46.1334 65.3939C46.133 65.7896 45.8125 66.1102 45.4167 66.1105H35.3834C34.9876 66.1102 34.6671 65.7896 34.6667 65.3939V63.9605H46.1334V65.3939ZM45.4167 56.0772C45.8125 56.0775 46.133 56.3981 46.1334 56.7938V62.5272H34.6667V56.7938C34.6671 56.3981 34.9876 56.0775 35.3834 56.0772H45.4167ZM40.4001 51.0605C40.0043 51.0605 39.6834 50.7396 39.6834 50.3438C39.6834 49.9481 40.0043 49.6272 40.4001 49.6272C40.7958 49.6272 41.1167 49.9481 41.1167 50.3438C41.1164 50.7396 40.7958 51.0602 40.4001 51.0605ZM57.6001 49.6272C57.9958 49.6272 58.3167 49.9481 58.3167 50.3438C58.3167 50.7396 57.9958 51.0605 57.6001 51.0605C57.2043 51.0605 56.8834 50.7396 56.8834 50.3438C56.8838 49.9481 57.2043 49.6275 57.6001 49.6272ZM51.8667 56.0772C51.8671 55.6814 52.1876 55.3609 52.5834 55.3605H59.7501C60.1458 55.3609 60.4664 55.6814 60.4667 56.0772V65.3939H51.8667V56.0772ZM51.8667 68.2605V66.8272H60.4667V68.2605C60.4664 68.6563 60.1458 68.9768 59.7501 68.9772H52.5834C52.1876 68.9768 51.8671 68.6563 51.8667 68.2605Z" fill="#910078"/>
</g>
<defs>
<clipPath id="clip0_401_14919">
<rect width="43" height="43" fill="white" transform="translate(27.5 27.5)"/>
</clipPath>
</defs>
</svg>
