<svg width="98" height="97" viewBox="0 0 98 97" fill="none" xmlns="http://www.w3.org/2000/svg">
<rect x="0.5" width="97" height="97" rx="20" fill="#FFF2F2"/>
<path d="M49 28C37.6956 28 28.5 37.1965 28.5 48.5C28.5 59.8035 37.6956 69 49 69C60.3044 69 69.5 59.8035 69.5 48.5C69.5 37.1965 60.3044 28 49 28ZM49 67.2917C38.6382 67.2917 30.2083 58.8618 30.2083 48.5C30.2083 38.1382 38.6382 29.7083 49 29.7083C59.3618 29.7083 67.7917 38.1382 67.7917 48.5C67.7917 58.8618 59.3618 67.2917 49 67.2917Z" fill="#FF4E4E"/>
<path d="M44.729 36.5415H39.604C38.1909 36.5415 37.0415 37.6909 37.0415 39.104V44.229C37.0415 45.6421 38.1909 46.7915 39.604 46.7915H44.729C46.1421 46.7915 47.2915 45.6421 47.2915 44.229V39.104C47.2915 37.6909 46.1421 36.5415 44.729 36.5415ZM45.5831 44.229C45.5831 44.7003 45.1994 45.0832 44.7289 45.0832H39.6039C39.1335 45.0832 38.7497 44.7003 38.7497 44.229V39.104C38.7497 38.6327 39.1335 38.2498 39.6039 38.2498H44.7289C45.1994 38.2498 45.5831 38.6327 45.5831 39.104V44.229Z" fill="#FF4E4E"/>
<path d="M58.396 36.5415H53.271C51.8579 36.5415 50.7085 37.6909 50.7085 39.104V44.229C50.7085 45.6421 51.8579 46.7915 53.271 46.7915H58.396C59.8091 46.7915 60.9585 45.6421 60.9585 44.229V39.104C60.9585 37.6909 59.8091 36.5415 58.396 36.5415ZM59.2502 44.229C59.2502 44.7003 58.8665 45.0832 58.396 45.0832H53.271C52.8005 45.0832 52.4168 44.7003 52.4168 44.229V39.104C52.4168 38.6327 52.8005 38.2498 53.271 38.2498H58.396C58.8665 38.2498 59.2502 38.6327 59.2502 39.104V44.229Z" fill="#FF4E4E"/>
<path d="M44.729 50.2085H39.604C38.1909 50.2085 37.0415 51.3579 37.0415 52.771V57.896C37.0415 59.3091 38.1909 60.4585 39.604 60.4585H44.729C46.1421 60.4585 47.2915 59.3091 47.2915 57.896V52.771C47.2915 51.358 46.1421 50.2085 44.729 50.2085ZM45.5831 57.896C45.5831 58.3673 45.1994 58.7502 44.7289 58.7502H39.6039C39.1335 58.7502 38.7497 58.3673 38.7497 57.896V52.771C38.7497 52.2997 39.1335 51.9168 39.6039 51.9168H44.7289C45.1994 51.9168 45.5831 52.2997 45.5831 52.771V57.896Z" fill="#FF4E4E"/>
<path d="M58.396 50.2085H53.271C51.8579 50.2085 50.7085 51.3579 50.7085 52.771V57.896C50.7085 59.3091 51.8579 60.4585 53.271 60.4585H58.396C59.8091 60.4585 60.9585 59.3091 60.9585 57.896V52.771C60.9585 51.358 59.8091 50.2085 58.396 50.2085ZM59.2502 57.896C59.2502 58.3673 58.8665 58.7502 58.396 58.7502H53.271C52.8005 58.7502 52.4168 58.3673 52.4168 57.896V52.771C52.4168 52.2997 52.8005 51.9168 53.271 51.9168H58.396C58.8665 51.9168 59.2502 52.2997 59.2502 52.771V57.896Z" fill="#FF4E4E"/>
</svg>
