<svg width="98" height="97" viewBox="0 0 98 97" fill="none" xmlns="http://www.w3.org/2000/svg">
<rect x="0.5" width="97" height="97" rx="20" fill="#E2F3FF"/>
<g clip-path="url(#clip0_401_14858)">
<path d="M50.0138 47.4873C49.7007 47.1742 49.1938 47.1742 48.8807 47.4873C48.5684 47.7996 48.5684 48.3065 48.8807 48.6196C49.1938 48.9319 49.7007 48.9319 50.0138 48.6196C50.3261 48.3065 50.3261 47.7996 50.0138 47.4873Z" fill="#0073C6"/>
<path d="M60.2056 37.2946C58.6409 35.73 56.1078 35.7299 54.543 37.2946C52.9824 38.8552 52.9823 41.3953 54.5433 42.9572C56.1045 44.5175 58.6446 44.5181 60.2056 42.9571C61.7702 41.3925 61.7705 38.8594 60.2056 37.2946ZM59.0731 41.8245C58.1368 42.761 56.6126 42.761 55.6757 41.8247C54.7392 40.8876 54.7391 39.3634 55.6756 38.4271C56.6143 37.4883 58.1342 37.4882 59.0731 38.4271C60.0119 39.3657 60.012 40.8857 59.0731 41.8245Z" fill="#0073C6"/>
<path d="M69.2653 28.2346C69.1081 28.0774 68.8935 27.9922 68.6704 28.0006C68.4893 28.0071 64.1783 28.1803 59.0537 29.9916C54.9473 31.4415 51.5245 33.5174 48.8804 36.1616C48.2879 36.7541 47.7114 37.3823 47.1597 38.0351C44.5453 36.4961 42.4503 36.9787 41.1259 37.6874C38.0765 39.3194 36.189 43.7506 36.189 46.9201C36.1892 47.2439 36.3844 47.536 36.6835 47.6599C36.7826 47.701 36.8867 47.7209 36.9898 47.7209C37.1983 47.7209 37.403 47.6395 37.5562 47.4863C39.1644 45.8781 41.148 45.9787 41.796 46.0639L42.0765 46.3444C41.5246 47.6576 41.08 48.9635 40.7539 50.2337C40.6362 50.6933 40.6759 51.1797 40.8509 51.6246C40.0799 51.9799 39.336 52.5016 38.6884 53.1493C36.6271 55.2107 36.2085 60.2343 36.1917 60.4471C36.1733 60.6807 36.258 60.9107 36.4237 61.0764C36.5745 61.2271 36.7784 61.3109 36.9898 61.3109C37.0108 61.3109 37.0319 61.3101 37.0529 61.3084C37.2658 61.2917 42.2895 60.8731 44.3508 58.8119C44.9983 58.1644 45.5199 57.4207 45.8752 56.6498C46.3462 56.835 46.831 56.8579 47.267 56.7462C48.5365 56.4202 49.8423 55.9757 51.1557 55.4238L51.4361 55.7042C51.5213 56.3523 51.6218 58.3359 50.0137 59.9439C49.7848 60.1729 49.7162 60.5174 49.8402 60.8165C49.9641 61.1158 50.256 61.3108 50.5799 61.3108C53.7494 61.3108 58.1805 59.4233 59.8125 56.3739C60.5213 55.0496 61.0038 52.9546 59.4649 50.3402C60.1173 49.7887 60.7457 49.2122 61.3384 48.6194C63.9826 45.9753 66.0584 42.5525 67.5083 38.4464C69.3196 33.3216 69.4928 29.0105 69.4993 28.8295C69.5073 28.6073 69.4225 28.3918 69.2653 28.2346ZM37.9793 45.1977C38.4768 42.7903 39.9216 40.1486 41.8819 39.0995C43.1919 38.3985 44.6238 38.4672 46.1463 39.3005C44.8492 41.0064 43.7217 42.8441 42.7818 44.7848C42.7699 44.7775 42.6257 44.5962 42.3579 44.5359C42.2478 44.511 40.129 44.0552 37.9793 45.1977ZM43.2184 57.6793C42.1173 58.7804 39.5344 59.3611 37.9018 59.5982C38.139 57.9656 38.7198 55.3828 39.8208 54.2818C40.4374 53.6652 41.1524 53.1977 41.871 52.9344L44.5658 55.6292C44.3025 56.3478 43.8351 57.0627 43.2184 57.6793ZM46.8691 55.1947C46.6374 55.2541 46.369 55.1669 46.1694 54.9677C45.1334 53.9317 44.7282 53.5265 44.601 53.3994C44.3678 53.1662 43.796 52.5944 42.5329 51.3312C42.3332 51.1311 42.2461 50.8628 42.3052 50.6314C42.5617 49.6325 42.8972 48.6077 43.3051 47.573L49.9271 54.195C48.8923 54.603 47.8676 54.9384 46.8691 55.1947ZM58.4007 55.6182C57.3515 57.5784 54.7099 59.0233 52.3026 59.5207C53.0701 58.0763 53.2393 56.2377 52.9589 55.1227C52.8938 54.8638 52.7248 54.7336 52.7154 54.7183C54.6559 53.7784 56.4936 52.6508 58.1996 51.3538C59.033 52.8764 59.1016 54.3084 58.4007 55.6182ZM60.2061 47.487C59.4845 48.2085 58.7075 48.9056 57.8967 49.5588C55.9474 51.1283 53.802 52.4577 51.513 53.5161L43.9841 45.9873C45.0424 43.6982 46.3718 41.5527 47.9412 39.6037C48.595 38.7923 49.292 38.0152 50.0132 37.294C52.3855 34.9216 55.4472 33.0335 59.1158 31.6745L65.8257 38.3844C64.4667 42.0528 62.5787 45.1145 60.2061 47.487ZM66.4018 36.6954L60.8047 31.0983C63.8541 30.1511 66.507 29.7965 67.8312 29.669C67.7037 30.9934 67.3489 33.6463 66.4018 36.6954Z" fill="#0073C6"/>
<path d="M47.7483 61.0762C47.4354 60.7635 46.9283 60.7637 46.6157 61.0764L44.3511 63.3418C44.0385 63.6546 44.0386 64.1617 44.3513 64.4743C44.6641 64.7869 45.1712 64.7869 45.4838 64.4741L47.7484 62.2087C48.061 61.8959 48.061 61.3889 47.7483 61.0762Z" fill="#0073C6"/>
<path d="M36.424 49.7517C36.1114 49.4389 35.6044 49.4389 35.2916 49.7515L33.0262 52.0161C32.7134 52.3288 32.7133 52.8358 33.0259 53.1486C33.3385 53.4612 33.8454 53.4615 34.1584 53.1488L36.4238 50.8842C36.7366 50.5715 36.7366 50.0645 36.424 49.7517Z" fill="#0073C6"/>
<path d="M42.0865 62.2091C41.7739 61.8964 41.2668 61.8964 40.954 62.2091L35.5295 67.6327C35.2167 67.9455 35.2167 68.4525 35.5294 68.7652C35.842 69.0779 36.3491 69.0781 36.6619 68.7653L42.0864 63.3416C42.3992 63.0289 42.3992 62.5219 42.0865 62.2091Z" fill="#0073C6"/>
<path d="M35.6802 62.2091C35.3676 61.8964 34.8605 61.8964 34.5478 62.2091L29.1233 67.6327C28.8105 67.9455 28.8105 68.4525 29.1232 68.7652C29.4357 69.0779 29.9429 69.0781 30.2557 68.7653L35.6801 63.3416C35.9929 63.0289 35.9929 62.5219 35.6802 62.2091Z" fill="#0073C6"/>
<path d="M35.2907 55.4137C34.978 55.101 34.4709 55.101 34.1582 55.4137L28.7345 60.8382C28.4218 61.151 28.4218 61.658 28.7346 61.9707C29.0473 62.2835 29.5544 62.2835 29.8671 61.9707L35.2907 56.5462C35.6034 56.2334 35.6034 55.7264 35.2907 55.4137Z" fill="#0073C6"/>
<path d="M53.411 44.089C53.0982 43.7763 52.5913 43.7763 52.2785 44.089L51.1461 45.2213C50.8334 45.534 50.8334 46.0411 51.1461 46.3539C51.4589 46.6666 51.9659 46.6666 52.2787 46.3539L53.411 45.2216C53.7237 44.9089 53.7237 44.4018 53.411 44.089Z" fill="#0073C6"/>
</g>
<defs>
<clipPath id="clip0_401_14858">
<rect width="41" height="41" fill="white" transform="translate(28.5 28)"/>
</clipPath>
</defs>
</svg>
