<svg width="30" height="30" viewBox="0 0 30 30" fill="none" xmlns="http://www.w3.org/2000/svg">
<rect width="30" height="30" rx="4" fill="#AAC645" fill-opacity="0.09"/>
<path d="M7.5 11.6667L9.76822 13.5568C9.91798 13.6817 10.1068 13.75 10.3017 13.75H19.6982C19.8932 13.75 20.082 13.6817 20.2317 13.5568L22.5 11.6667M10.4167 16.6667H10.425M19.5833 16.6667H19.5917M11.8005 8.75H18.1995C18.7976 8.75 19.3498 9.07047 19.6465 9.58977L22.0608 13.8147C22.3486 14.3184 22.5 14.8884 22.5 15.4686V20.4167C22.5 20.8769 22.1269 21.25 21.6667 21.25H20.8333C20.3731 21.25 20 20.8769 20 20.4167V19.5833H10V20.4167C10 20.8769 9.6269 21.25 9.16667 21.25H8.33333C7.8731 21.25 7.5 20.8769 7.5 20.4167V15.4686C7.5 14.8884 7.65138 14.3184 7.93919 13.8147L10.3535 9.58977C10.6502 9.07047 11.2024 8.75 11.8005 8.75ZM10.8333 16.6667C10.8333 16.8967 10.6468 17.0833 10.4167 17.0833C10.1865 17.0833 10 16.8967 10 16.6667C10 16.4366 10.1865 16.25 10.4167 16.25C10.6468 16.25 10.8333 16.4366 10.8333 16.6667ZM20 16.6667C20 16.8967 19.8134 17.0833 19.5833 17.0833C19.3532 17.0833 19.1667 16.8967 19.1667 16.6667C19.1667 16.4366 19.3532 16.25 19.5833 16.25C19.8134 16.25 20 16.4366 20 16.6667Z" stroke="#AAC645" stroke-width="1.3" stroke-linecap="round" stroke-linejoin="round"/>
</svg>
