<svg width="30" height="30" viewBox="0 0 30 30" fill="none" xmlns="http://www.w3.org/2000/svg">
<rect width="30" height="30" rx="4" fill="#AAC645" fill-opacity="0.09"/>
<path d="M9.16797 14.1667H20.8346M12.5013 20L10.0013 22.5M17.5013 20L20.0013 22.5M15.0013 14.1667V8.33333M11.668 17.5H11.6763M18.3346 17.5H18.343M11.8346 20H18.168C19.1014 20 19.5681 20 19.9246 19.8183C20.2382 19.6586 20.4932 19.4036 20.653 19.09C20.8346 18.7335 20.8346 18.2667 20.8346 17.3333V10.1667C20.8346 9.23325 20.8346 8.76653 20.653 8.41002C20.4932 8.09641 20.2382 7.84144 19.9246 7.68166C19.5681 7.5 19.1014 7.5 18.168 7.5H11.8346C10.9012 7.5 10.4345 7.5 10.078 7.68166C9.76438 7.84144 9.50941 8.09641 9.34963 8.41002C9.16797 8.76653 9.16797 9.23324 9.16797 10.1667V17.3333C9.16797 18.2667 9.16797 18.7335 9.34963 19.09C9.50941 19.4036 9.76438 19.6586 10.078 19.8183C10.4345 20 10.9012 20 11.8346 20Z" stroke="#AAC645" stroke-width="1.3" stroke-linecap="round" stroke-linejoin="round"/>
</svg>
