<svg width="30" height="30" viewBox="0 0 30 30" fill="none" xmlns="http://www.w3.org/2000/svg">
<rect width="30" height="30" rx="4" fill="#AAC645" fill-opacity="0.09"/>
<path d="M7.08203 9.58366L7.59546 10.0971C8.06708 10.5687 8.70673 10.8337 9.3737 10.8337C10.0407 10.8337 10.6803 10.5687 11.1519 10.0971L11.3455 9.90356C11.8171 9.43194 12.4567 9.16699 13.1237 9.16699C13.7907 9.16699 14.4303 9.43194 14.9019 9.90356L15.0954 10.0971C15.5671 10.5687 16.2067 10.8337 16.8737 10.8337C17.5407 10.8337 18.1803 10.5687 18.6519 10.0971L18.8454 9.90356C19.3171 9.43194 19.9567 9.16699 20.6237 9.16699C21.2907 9.16699 21.9303 9.43194 22.4019 9.90356L22.9154 10.417M7.08203 14.5837L7.59546 15.0971C8.06708 15.5687 8.70673 15.8337 9.3737 15.8337C10.0407 15.8337 10.6803 15.5687 11.1519 15.0971L11.3455 14.9036C11.8171 14.4319 12.4567 14.167 13.1237 14.167C13.7907 14.167 14.4303 14.4319 14.9019 14.9036L15.0954 15.0971C15.5671 15.5687 16.2067 15.8337 16.8737 15.8337C17.5407 15.8337 18.1803 15.5687 18.6519 15.0971L18.8454 14.9036C19.3171 14.4319 19.9567 14.167 20.6237 14.167C21.2907 14.167 21.9303 14.4319 22.4019 14.9036L22.9154 15.417M7.08203 19.5837L7.59546 20.0971C8.06708 20.5687 8.70673 20.8337 9.3737 20.8337C10.0407 20.8337 10.6803 20.5687 11.1519 20.0971L11.3455 19.9036C11.8171 19.4319 12.4567 19.167 13.1237 19.167C13.7907 19.167 14.4303 19.4319 14.9019 19.9036L15.0954 20.0971C15.5671 20.5687 16.2067 20.8337 16.8737 20.8337C17.5407 20.8337 18.1803 20.5687 18.6519 20.0971L18.8454 19.9036C19.3171 19.4319 19.9567 19.167 20.6237 19.167C21.2907 19.167 21.9303 19.4319 22.4019 19.9036L22.9154 20.417" stroke="#AAC645" stroke-width="1.3" stroke-linecap="round" stroke-linejoin="round"/>
</svg>
