<svg width="30" height="30" viewBox="0 0 30 30" fill="none" xmlns="http://www.w3.org/2000/svg">
<rect width="30" height="30" rx="4" fill="#AAC645" fill-opacity="0.09"/>
<path d="M8.33203 10H21.6654M18.332 10L18.1065 9.32339C17.8879 8.66771 17.7786 8.33987 17.5759 8.09748C17.3969 7.88344 17.1671 7.71777 16.9074 7.61565C16.6134 7.5 16.2679 7.5 15.5767 7.5H14.4207C13.7295 7.5 13.384 7.5 13.09 7.61565C12.8303 7.71777 12.6004 7.88344 12.4214 8.09748C12.2187 8.33987 12.1095 8.66771 11.8909 9.32339L11.6654 10M19.9987 10V18.5C19.9987 19.9002 19.9987 20.6002 19.7262 21.135C19.4865 21.6054 19.1041 21.9878 18.6337 22.2275C18.0989 22.5 17.3989 22.5 15.9987 22.5H13.9987C12.5986 22.5 11.8985 22.5 11.3637 22.2275C10.8933 21.9878 10.5109 21.6054 10.2712 21.135C9.9987 20.6002 9.9987 19.9002 9.9987 18.5V10M16.6654 13.3333V19.1667M13.332 13.3333V19.1667" stroke="#AAC645" stroke-width="1.3" stroke-linecap="round" stroke-linejoin="round"/>
</svg>
