<svg width="34" height="22" viewBox="0 0 34 22" fill="none" xmlns="http://www.w3.org/2000/svg">
<g clip-path="url(#clip0_1808_26658)">
<path d="M3.19922 0H30.8005C31.6808 0 32.4808 0.390016 33.0604 1.01816C33.64 1.6464 33.9999 2.51344 33.9999 3.46748V18.5325C33.9999 19.4865 33.6399 20.3535 33.0604 20.9817C32.4807 21.6099 31.6807 22 30.8006 22H3.19933C2.31917 22 1.51908 21.61 0.939418 20.9817C0.359855 20.3536 0 19.4867 0 18.5325V3.46748C0 2.51333 0.359855 1.64629 0.939418 1.01816C1.51898 0.390016 2.31907 0 3.19943 0H3.19922ZM30.8005 1.19514H3.19922C2.62323 1.19514 2.09916 1.45106 1.7189 1.86319C1.33865 2.27532 1.10252 2.84332 1.10252 3.46759V18.5326C1.10252 19.1568 1.33865 19.7248 1.7189 20.1369C2.09926 20.5492 2.62333 20.8051 3.19922 20.8051H30.8005C31.3763 20.8051 31.9003 20.5492 32.2807 20.1369C32.6609 19.7247 32.8972 19.1567 32.8972 18.5327V3.4677C32.8972 2.84365 32.661 2.27554 32.2808 1.8633C31.9005 1.45118 31.3764 1.19525 30.8005 1.19525V1.19514Z" fill="#808080"/>
<path fill-rule="evenodd" clip-rule="evenodd" d="M13.9363 14.3469L14.9863 7.66957H16.6655L15.6149 14.3469H13.9363ZM21.7055 7.83417C21.3728 7.69864 20.8515 7.55371 20.2004 7.55371C18.5412 7.55349 17.3722 8.45933 17.3624 9.75728C17.353 10.7164 18.1968 11.2519 18.8338 11.5714C19.4874 11.8984 19.7072 12.1073 19.7041 12.3996C19.6999 12.847 19.182 13.0516 18.6994 13.0516C18.0273 13.0516 17.6702 12.9505 17.1187 12.7012L16.9022 12.5949L16.6665 14.0897C17.0588 14.2762 17.784 14.4377 18.5371 14.4461C20.3023 14.446 21.4483 13.5509 21.4613 12.1648C21.4677 11.4051 21.0203 10.8272 20.0515 10.3506C19.4645 10.0415 19.1049 9.83566 19.1088 9.52281C19.1088 9.24522 19.4131 8.94851 20.0705 8.94851C20.6197 8.93911 21.0173 9.069 21.3273 9.20432L21.4779 9.28126L21.7054 7.83428L21.7055 7.83417ZM26.0117 7.67587H24.7141C24.3121 7.67587 24.0112 7.79504 23.8347 8.22983L21.3408 14.3489H23.1041C23.1041 14.3489 23.3925 13.5263 23.4578 13.3457C23.6506 13.3457 25.3635 13.3486 25.6084 13.3486C25.6587 13.5823 25.8127 14.349 25.8127 14.349L27.3711 14.3489L26.0118 7.67587H26.0117ZM23.9409 11.9799C24.0799 11.5952 24.61 10.1135 24.61 10.1135C24.6002 10.1312 24.7478 9.72688 24.8326 9.47616L24.9463 10.0517C24.9463 10.0517 25.2677 11.6458 25.3349 11.98L23.9408 11.9799H23.9409ZM12.5279 7.67443L10.8838 12.2279L10.7086 11.3026C10.4026 10.2358 9.44891 9.08028 8.38281 8.50167L9.88619 14.3412L11.6629 14.3389L14.3067 7.67443H12.5279Z" fill="#191E70"/>
<path fill-rule="evenodd" clip-rule="evenodd" d="M9.35822 7.6709H6.65033L6.62891 7.80986C8.73561 8.36238 10.1295 9.69825 10.7082 11.3031L10.1193 8.2347C10.0177 7.81185 9.72287 7.68571 9.35822 7.6709Z" fill="#F7B600"/>
</g>
<defs>
<clipPath id="clip0_1808_26658">
<rect width="34" height="22" fill="white"/>
</clipPath>
</defs>
</svg>
